<svg width="0" height="0" style="position:absolute"><symbol viewBox="0 0 18 18" id="svg-close"><title>AC192DED-C8A4-4A3C-96F5-7E6B73024854</title><path d="M18 1.813L16.187 0 9 7.187 1.813 0 0 1.813 7.187 9 0 16.187 1.813 18 9 10.813 16.187 18 18 16.187 10.813 9z" fill-rule="evenodd"/></symbol><symbol viewBox="0 0 191 20" id="svg-logo-light"><title>F049655B-C42C-4E54-8261-002E753E0374</title><g fill="none" fill-rule="evenodd"><path fill="#F04F37" d="M156.672 3.076h3.197V0h-3.197z"/><path d="M118.987 7.893h5.763V4.807h-5.763v3.086zm0 11.8h5.763v-3.108h-5.763v3.107zM129.362 6.98a7.713 7.713 0 0 0-1.657 2.365 6.926 6.926 0 0 0-.612 2.895c0 1.028.203 1.993.612 2.893a7.7 7.7 0 0 0 1.657 2.366 7.804 7.804 0 0 0 2.448 1.604 7.503 7.503 0 0 0 2.067.53v-3.102a4.516 4.516 0 0 1-.821-.25 4.517 4.517 0 0 1-1.447-.945 4.554 4.554 0 0 1-.97-1.391 4.086 4.086 0 0 1-.36-1.705c0-.61.12-1.179.36-1.707.238-.528.562-.99.97-1.39.409-.4.89-.714 1.447-.945.266-.11.54-.192.82-.25V4.845a7.517 7.517 0 0 0-2.066.53 7.818 7.818 0 0 0-2.448 1.605zm-28.846 12.732h3.176V4.807h-3.176v14.905zm37.838-4.72c-.274.33-.594.618-.96.862a4.624 4.624 0 0 1-1.897.724v3.083a7.76 7.76 0 0 0 3.142-.944 7.77 7.77 0 0 0 1.541-1.116 7.467 7.467 0 0 0 1.203-1.442l-2.364-2.275c-.169.406-.39.776-.665 1.107zm-24.053 4.7h3.066V4.807h-3.066v14.885zm-8.989.02h5.717v-3.127h-5.717v3.127zm41.834 0h3.229v-10.3h-3.23v10.3zm37.78-.02h5.662v-3.107h-5.663v3.107zm0-11.799h5.662V4.807h-5.663v3.086zm-4.787 11.8h3.166V4.806h-3.166v14.885zm-9.4-6.55l1.747 4.704 4.845-13.04h-3.504l-3.088 8.336zm-78.526 6.57h5.623v-3.128h-5.623v3.127zm64.452 0h3.209V4.826h-3.209v14.885zm5.805-14.906L168 19.692h3.45l-5.526-14.885h-3.454zm-23.83.954a7.812 7.812 0 0 0-3.143-.943V7.9a4.666 4.666 0 0 1 1.897.723c.366.244.686.536.96.874.274.339.496.71.665 1.117l2.364-2.275a7.746 7.746 0 0 0-1.203-1.452 7.575 7.575 0 0 0-1.54-1.127zm46.285 8.266h5.388V10.92h-5.388v3.107zm-168.292-9.2h-3.23v14.906h3.23V14.27h1.817v-3.107h-1.817V4.827zM0 7.873h10.407V4.807H0v3.066zm22.017 3.29H20.07v3.107h1.946v5.463h3.25V4.827h-3.25v6.336zm96.97 2.864h5.488V10.92h-5.488v3.107zm24.57-6.174h10.407V4.807h-10.406v3.046zM28.94 19.693h3.285V4.806H28.94v14.885zm-25.351.02h3.23v-10.3h-3.23v10.3zM83.007 6.98a7.818 7.818 0 0 0-2.45-1.605 7.5 7.5 0 0 0-1.984-.518V7.97c.25.056.493.13.729.228.549.23 1.03.545 1.446.944.415.4.742.863.981 1.391a4.08 4.08 0 0 1 .36 1.707 4.08 4.08 0 0 1-.36 1.705c-.24.528-.566.992-.981 1.391a4.67 4.67 0 0 1-1.446.945c-.236.099-.48.172-.729.228v3.113a7.5 7.5 0 0 0 1.985-.519 7.804 7.804 0 0 0 2.449-1.604 7.7 7.7 0 0 0 1.657-2.366c.408-.9.612-1.865.612-2.893a6.932 6.932 0 0 0-.612-2.895 7.713 7.713 0 0 0-1.657-2.365zM65.2 5.76a7.812 7.812 0 0 0-3.171-.946v3.083c.246.034.488.085.722.158.437.136.838.325 1.204.569.366.243.686.535.96.873.274.339.496.71.665 1.117l2.364-2.275a7.766 7.766 0 0 0-1.203-1.452 7.563 7.563 0 0 0-1.54-1.127zm6.892 1.219a7.705 7.705 0 0 0-1.657 2.365 6.932 6.932 0 0 0-.612 2.895c0 1.028.204 1.993.612 2.893a7.692 7.692 0 0 0 4.106 3.97 7.56 7.56 0 0 0 2.41.562v-3.08c-.41-.05-.803-.148-1.175-.304a4.54 4.54 0 0 1-2.407-2.336 4.08 4.08 0 0 1-.359-1.705c0-.61.12-1.179.36-1.707.238-.528.562-.99.97-1.39.408-.4.887-.714 1.436-.945a4.392 4.392 0 0 1 1.176-.305V4.814a7.57 7.57 0 0 0-2.411.561 7.818 7.818 0 0 0-2.449 1.605zm-38.529 7.047h5.55V10.92h-5.55v3.107zm53.759 5.685h3.25V4.807h-3.25v14.905zm-22.407-4.72c-.274.33-.594.618-.96.862a4.624 4.624 0 0 1-1.926.727v3.083a7.794 7.794 0 0 0 4.713-2.063 7.485 7.485 0 0 0 1.202-1.442l-2.364-2.275c-.169.406-.39.776-.665 1.107zm-31.352 4.7h5.825v-3.107h-5.825v3.107zM55.924 6.98a7.697 7.697 0 0 0-1.657 2.365 6.92 6.92 0 0 0-.612 2.895c0 1.028.203 1.993.612 2.893a7.684 7.684 0 0 0 4.105 3.97 7.503 7.503 0 0 0 2.037.526v-3.106a4.48 4.48 0 0 1-.791-.242 4.508 4.508 0 0 1-2.417-2.336 4.08 4.08 0 0 1-.36-1.705c0-.61.12-1.179.36-1.707.239-.528.562-.99.97-1.39.409-.4.89-.714 1.447-.945a4.48 4.48 0 0 1 .791-.242V4.85c-.71.083-1.39.254-2.037.525a7.823 7.823 0 0 0-2.448 1.605zm-22.36.913h5.825V4.807h-5.825v3.086z" fill="#FFF"/><path d="M47.055 17.15c-.468 0-.835.33-.835.89v.742h1.753v-.741c0-.561-.372-.892-.845-.892h-.073zm1.569.85v1.718h-3.056V18c0-1.09.666-1.8 1.491-1.8h.074c.817 0 1.491.71 1.491 1.8zM48.624 15.605h-3.056V12.6h.698v2.07h.587v-1.483h.427v1.483h.61V12.6h.734zM47.624 9.64c-.193 0-.321.136-.321.476v.887h.66v-.9c0-.336-.132-.464-.325-.464h-.014zm-1.055 0c-.193 0-.321.127-.321.463v.9h.656v-.887c0-.335-.133-.477-.321-.477h-.014zm2.055.242v2.057h-3.055V9.917c0-.768.335-1.187.816-1.187h.037c.307 0 .592.239.68.658.081-.477.38-.706.65-.706h.042c.49 0 .83.437.83 1.2zM46.293 6.048h2.331v.935h-2.33V8.22h-.726V4.817h.725z" fill="#F8E8CA"/></g></symbol><symbol viewBox="0 0 25 30" id="svg-play"><title>Triangle</title><path d="M25 15L0 30V0z" fill-rule="evenodd"/></symbol></svg>