<?xml version="1.0" encoding="UTF-8"?>
<svg width="241px" height="20px" viewBox="15 18 241 20" version="1.1" xmlns="http://www.w3.org/2000/svg" xmlns:xlink="http://www.w3.org/1999/xlink">
    <g stroke="none" stroke-width="1" fill="none" fill-rule="evenodd" transform="translate(15.000000, 18.000000)">
        <polygon fill="#F04F37" points="207 3 210 3 210 0 207 0"></polygon>
        <path d="M169.332828,8.08666667 L175.095311,8.08666667 L175.095311,5 L169.332828,5 L169.332828,8.08666667 Z M169.332828,19.8858333 L175.095311,19.8858333 L175.095311,16.77875 L169.332828,16.77875 L169.332828,19.8858333 Z M179.707029,7.17291667 C179.010594,7.85 178.458383,8.63875 178.049964,9.53875 C177.641544,10.4395833 177.437984,11.4041667 177.437984,12.4329167 C177.437984,13.4616667 177.641544,14.42625 178.049964,15.32625 C178.458383,16.2270833 179.010594,17.0158333 179.707029,17.6925 C180.403465,18.3695833 181.219871,18.9041667 182.155814,19.2966667 C182.811104,19.5720833 183.501043,19.7445833 184.222166,19.8270833 L184.222166,16.7241667 C183.941079,16.6666667 183.667356,16.5841667 183.400995,16.4741667 C182.84532,16.24375 182.363272,15.9291667 181.954853,15.5295833 C181.546433,15.1304167 181.222902,14.66625 180.983828,14.1383333 C180.744753,13.6104167 180.625215,13.0416667 180.625215,12.4329167 C180.625215,11.8233333 180.744753,11.2545833 180.983828,10.7266667 C181.222902,10.19875 181.546433,9.73541667 181.954853,9.33583333 C182.363272,8.93666667 182.84532,8.62208333 183.400995,8.39166667 C183.667356,8.28125 183.941079,8.19916667 184.222166,8.14166667 L184.222166,5.03833333 C183.501043,5.12083333 182.811104,5.29375 182.155814,5.56875 C181.219871,5.96166667 180.403465,6.49625 179.707029,7.17291667 L179.707029,7.17291667 Z M150.861698,19.9058333 L154.037236,19.9058333 L154.037236,5.00041667 L150.861698,5.00041667 L150.861698,19.9058333 Z M188.699188,15.1845833 C188.425032,15.51625 188.104966,15.80375 187.738991,16.0475 C187.373016,16.29125 186.971959,16.4808333 186.535821,16.6158333 C186.310605,16.6858333 186.079327,16.7370833 185.842417,16.7708333 L185.842417,19.8541667 C186.293714,19.8166667 186.736349,19.745 187.169023,19.6316667 C187.816084,19.4629167 188.421567,19.2225 188.984605,18.9108333 C189.547211,18.5995833 190.060875,18.2270833 190.525599,17.7941667 C190.989889,17.3608333 191.390946,16.88 191.728336,16.3520833 L189.36444,14.0775 C189.195528,14.48375 188.973778,14.8529167 188.699188,15.1845833 L188.699188,15.1845833 Z M164.646181,19.8858333 L167.712576,19.8858333 L167.712576,5.00041667 L164.646181,5.00041667 L164.646181,19.8858333 Z M155.657921,19.9058333 L161.374061,19.9058333 L161.374061,16.77875 L155.657921,16.77875 L155.657921,19.9058333 Z M197.491252,19.9058333 L200.720494,19.9058333 L200.720494,9.60541667 L197.491252,9.60541667 L197.491252,19.9058333 Z M235.270705,19.8858333 L240.933141,19.8858333 L240.933141,16.77875 L235.270705,16.77875 L235.270705,19.8858333 Z M235.270705,8.08666667 L240.933141,8.08666667 L240.933141,5 L235.270705,5 L235.270705,8.08666667 Z M230.484011,19.8858333 L233.65002,19.8858333 L233.65002,5.00041667 L230.484011,5.00041667 L230.484011,19.8858333 Z M221.084732,13.33625 L222.831451,18.0408333 L227.676615,5.00041667 L224.172349,5.00041667 L221.084732,13.33625 Z M142.558612,19.9058333 L148.181202,19.9058333 L148.181202,16.77875 L142.558612,16.77875 L142.558612,19.9058333 Z M207.010934,19.9058333 L210.219388,19.9058333 L210.219388,5.02041667 L207.010934,5.02041667 L207.010934,19.9058333 Z M212.815862,5.00041667 L218.3462,19.8858333 L221.795027,19.8858333 L216.26902,5.00041667 L212.815862,5.00041667 Z M188.984605,5.95458333 C188.421567,5.64291667 187.816084,5.40291667 187.169023,5.23375 C186.736349,5.12083333 186.293714,5.04875 185.842417,5.01125 L185.842417,8.09458333 C186.079327,8.12833333 186.310605,8.17958333 186.535821,8.24916667 C186.971959,8.385 187.373016,8.57458333 187.738991,8.81791667 C188.104966,9.06166667 188.425032,9.35291667 188.699188,9.69125 C188.973778,10.03 189.195528,10.4016667 189.36444,10.8079167 L191.728336,8.53375 C191.390946,8.00583333 190.989889,7.52208333 190.525599,7.08166667 C190.060875,6.64208333 189.547211,6.26625 188.984605,5.95458333 L188.984605,5.95458333 Z M235.270705,14.22 L240.658551,14.22 L240.658551,11.1129167 L235.270705,11.1129167 L235.270705,14.22 Z M169.332828,14.22 L174.820721,14.22 L174.820721,11.1129167 L169.332828,11.1129167 L169.332828,14.22 Z M193.902964,8.04625 L204.309215,8.04625 L204.309215,5.00041667 L193.902964,5.00041667 L193.902964,8.04625 Z M133.352066,7.17291667 C132.65563,6.49625 131.839224,5.96166667 130.903281,5.56875 C130.273111,5.30416667 129.609592,5.13666667 128.918787,5.05041667 L128.918787,8.16291667 C129.167823,8.21958333 129.411662,8.2925 129.647272,8.39166667 C130.196451,8.62208333 130.678066,8.93666667 131.093415,9.33583333 C131.508331,9.73541667 131.835327,10.19875 132.074834,10.7266667 C132.314342,11.2545833 132.43388,11.8233333 132.43388,12.4329167 C132.43388,13.0416667 132.314342,13.6104167 132.074834,14.1383333 C131.835327,14.66625 131.508331,15.1304167 131.093415,15.5295833 C130.678066,15.9291667 130.196451,16.24375 129.647272,16.4741667 C129.411662,16.5729167 129.167823,16.64625 128.918787,16.7025 L128.918787,19.815 C129.609592,19.72875 130.273111,19.56125 130.903281,19.2966667 C131.839224,18.9041667 132.65563,18.3695833 133.352066,17.6925 C134.048501,17.0158333 134.600712,16.2270833 135.009132,15.32625 C135.417118,14.42625 135.621111,13.4616667 135.621111,12.4329167 C135.621111,11.4041667 135.417118,10.4395833 135.009132,9.53875 C134.600712,8.63875 134.048501,7.85 133.352066,7.17291667 L133.352066,7.17291667 Z M115.546621,5.95458333 C114.983583,5.64291667 114.3781,5.40291667 113.731039,5.23375 C113.28927,5.11833333 112.836673,5.045 112.374982,5.00833333 L112.374982,8.09125 C112.621853,8.125 112.863093,8.17666667 113.097837,8.24916667 C113.533975,8.385 113.935032,8.57458333 114.301007,8.81791667 C114.666982,9.06166667 114.987048,9.35291667 115.261637,9.69125 C115.535794,10.03 115.757544,10.4016667 115.926456,10.8079167 L118.290785,8.53375 C117.952961,8.00583333 117.551905,7.52208333 117.087615,7.08166667 C116.623324,6.64208333 116.109227,6.26625 115.546621,5.95458333 L115.546621,5.95458333 Z M122.438646,7.17291667 C121.742211,7.85 121.189567,8.63875 120.78158,9.53875 C120.373594,10.4395833 120.169601,11.4041667 120.169601,12.4329167 C120.169601,13.4616667 120.373594,14.42625 120.78158,15.32625 C121.189567,16.2270833 121.742211,17.0158333 122.438646,17.6925 C123.135082,18.3695833 123.951488,18.9041667 124.887431,19.2966667 C125.646234,19.6154167 126.451379,19.7979167 127.298102,19.8579167 L127.298102,16.7791667 C126.887517,16.72875 126.494256,16.63 126.122218,16.4741667 C125.573472,16.24375 125.094889,15.9291667 124.686902,15.5295833 C124.278483,15.1304167 123.954952,14.66625 123.715878,14.1383333 C123.47637,13.6104167 123.356832,13.0416667 123.356832,12.4329167 C123.356832,11.8233333 123.47637,11.2545833 123.715878,10.7266667 C123.954952,10.19875 124.278483,9.73541667 124.686902,9.33583333 C125.094889,8.93666667 125.573472,8.62208333 126.122218,8.39166667 C126.494256,8.23541667 126.887517,8.13666667 127.298102,8.08666667 L127.298102,5.0075 C126.451379,5.0675 125.646234,5.25041667 124.887431,5.56875 C123.951488,5.96166667 123.135082,6.49625 122.438646,7.17291667 L122.438646,7.17291667 Z M137.668406,19.9058333 L140.918005,19.9058333 L140.918005,5.00041667 L137.668406,5.00041667 L137.668406,19.9058333 Z M115.261637,15.1845833 C114.987048,15.51625 114.666982,15.80375 114.301007,16.0475 C113.935032,16.29125 113.533975,16.4808333 113.097837,16.6158333 C112.863093,16.68875 112.621853,16.7404167 112.374982,16.7741667 L112.374982,19.8570833 C112.836673,19.8204167 113.28927,19.7475 113.731039,19.6316667 C114.3781,19.4629167 114.983583,19.2225 115.546621,18.9108333 C116.109227,18.5995833 116.623324,18.2270833 117.087615,17.7941667 C117.551905,17.3608333 117.952961,16.88 118.290785,16.3520833 L115.926456,14.0775 C115.757544,14.48375 115.535794,14.8529167 115.261637,15.1845833 L115.261637,15.1845833 Z M106.269045,7.17291667 C105.57261,7.85 105.019966,8.63875 104.612413,9.53875 C104.20356,10.4395833 104,11.4041667 104,12.4329167 C104,13.4616667 104.20356,14.42625 104.612413,15.32625 C105.019966,16.2270833 105.57261,17.0158333 106.269045,17.6925 C106.965914,18.3695833 107.781887,18.9041667 108.71783,19.2966667 C109.364025,19.5679167 110.044435,19.73875 110.75473,19.8225 L110.75473,16.7166667 C110.484472,16.6595833 110.219844,16.5804167 109.963444,16.4741667 C109.407336,16.24375 108.925288,15.9291667 108.517302,15.5295833 C108.108882,15.1304167 107.785351,14.66625 107.546277,14.1383333 C107.306769,13.6104167 107.187231,13.0416667 107.187231,12.4329167 C107.187231,11.8233333 107.306769,11.2545833 107.546277,10.7266667 C107.785351,10.19875 108.108882,9.73541667 108.517302,9.33583333 C108.925288,8.93666667 109.407336,8.62208333 109.963444,8.39166667 C110.219844,8.28541667 110.484472,8.20625 110.75473,8.14916667 L110.75473,5.04291667 C110.044435,5.12666667 109.364025,5.2975 108.71783,5.56875 C107.781887,5.96166667 106.965914,6.49625 106.269045,7.17291667 L106.269045,7.17291667 Z" fill="#FFFFFF"></path>
        <path d="M88.8008304,8.06522839 L98.9834096,8.06522839 L98.9834096,5.00007667 L88.8008304,5.00007667 L88.8008304,8.06522839 Z M92.3117707,20 L95.4716945,20 L95.4716945,9.6338378 L92.3117707,9.6338378 L92.3117707,20 Z M75.6349979,19.9892666 L78.8499375,19.9892666 L78.8499375,5.01004339 L75.6349979,5.01004339 L75.6349979,19.9892666 Z M85.0578162,12.0509223 C86.2433688,11.4191852 87.058533,10.1955778 87.058533,8.77033596 C87.058533,6.70415689 85.3731887,5.00981339 83.2849114,5.00981339 L80.1327364,5.00981339 L80.1327364,8.21833264 L82.428679,8.21833264 C83.2670894,8.21833264 83.9474261,8.89147002 83.9474261,9.72100833 C83.9474261,10.5505466 83.2670894,11.2229173 82.428679,11.2229173 L80.1327364,11.2229173 L80.1327364,13.8556665 L82.7363028,13.8556665 C83.6855197,13.8556665 84.4541917,14.6162044 84.4541917,15.5553767 C84.4541917,16.4937823 83.6855197,17.2550869 82.7363028,17.2550869 L80.1327364,17.2550869 L80.1327364,18.0393916 L80.1327364,19.9790699 L83.2322202,19.9790699 C83.2322202,19.9790699 83.4972261,19.9752365 83.635928,19.9752365 C85.9210224,19.9752365 87.7737389,18.1421255 87.7737389,15.881212 C87.7737389,14.1163347 86.6393278,12.6259258 85.0578162,12.0509223 Z M66.3419705,19.9892666 L72.0419213,19.9892666 L72.0419213,16.8627812 L66.3419705,16.8627812 L66.3419705,19.9892666 Z M66.3419705,14.0582977 L71.773041,14.0582977 L71.773041,10.9318123 L66.3419705,10.9318123 L66.3419705,14.0582977 Z M66.3419705,8.11582869 L72.0419213,8.11582869 L72.0419213,5.01004339 L66.3419705,5.01004339 L66.3419705,8.11582869 Z M61.8174989,19.9892666 L65.0324386,19.9892666 L65.0324386,5.01004339 L61.8174989,5.01004339 L61.8174989,19.9892666 Z M48,5 L48,19.9999233 L51.1986673,19.9999233 L51.1606986,5 L48,5 Z M56.7780482,7.20686324 C57.4591597,7.888434 58.0000197,8.68193876 58.3990782,9.5881442 C58.7981368,10.4943496 58.9980535,11.4649555 58.9980535,12.4999617 C58.9980535,13.5357345 58.7981368,14.5063404 58.3990782,15.4125458 C58.0000197,16.3187512 57.4591597,17.112256 56.7780482,17.7930601 C56.0961617,18.4746308 55.2972698,19.0128341 54.3821472,19.4076698 C53.7653499,19.6737047 53.116008,19.8423724 52.4403205,19.9290062 L52.4403205,16.7971541 C52.68363,16.7404204 52.9222903,16.66682 53.1532018,16.5671527 C53.6901874,16.335618 54.1620838,16.0182161 54.5681162,15.6164804 C54.9733737,15.2147446 55.2941703,14.7478418 55.5281813,14.2165386 C55.7621923,13.6852354 55.8791979,13.1132987 55.8791979,12.4999617 C55.8791979,11.8866247 55.7621923,11.3146879 55.5281813,10.7833847 C55.2941703,10.2520815 54.9733737,9.78594538 54.5681162,9.38344297 C54.1620838,8.98170722 53.6901874,8.66507199 53.1532018,8.43353727 C52.9222903,8.33387 52.68363,8.26026956 52.4403205,8.20353589 L52.4403205,5.07091709 C53.116008,5.15831762 53.7653499,5.32621862 54.3821472,5.59302022 C55.2972698,5.98785593 56.0961617,6.52605916 56.7780482,7.20686324 Z" fill="#EF4F37"></path>
        <path d="M33.5644603,19.865472 L39.3888776,19.865472 L39.3888776,16.7626386 L33.5644603,16.7626386 L33.5644603,19.865472 Z M33.5640272,14.2073885 L39.114288,14.2073885 L39.114288,11.1045552 L33.5640272,11.1045552 L33.5640272,14.2073885 Z M33.5644603,8.08244461 L39.3888776,8.08244461 L39.3888776,5 L33.5644603,5 L33.5644603,8.08244461 Z M28.9397483,19.865472 L32.2252948,19.865472 L32.2252948,5.0004161 L28.9397483,5.0004161 L28.9397483,19.865472 Z M22.0165397,11.3475557 L20.0710249,11.3475557 L20.0710249,14.450389 L22.0165397,14.450389 L22.0165397,19.9058333 L25.2670045,19.9058333 L25.2670045,5.02038874 L22.0165397,5.02038874 L22.0165397,11.3475557 Z M16.633458,5.02038874 L13.4037823,5.02038874 L13.4037823,19.9058333 L16.633458,19.9058333 L16.633458,14.450389 L18.4503401,14.450389 L18.4503401,11.3475557 L16.633458,11.3475557 L16.633458,5.02038874 Z M3.58872109,19.8854446 L6.81839683,19.8854446 L6.81839683,9.59911721 L3.58872109,9.59911721 L3.58872109,19.8854446 Z M0,8.06247197 L10.4066848,8.06247197 L10.4066848,5.0004161 L0,5.0004161 L0,8.06247197 Z" fill="#FFFFFF"></path>
    </g>
</svg>
