<?xml version="1.0" encoding="UTF-8" standalone="no"?>
<svg width="511px" height="126px" viewBox="0 0 511 126" version="1.1" xmlns="http://www.w3.org/2000/svg" xmlns:xlink="http://www.w3.org/1999/xlink">
    <!-- Generator: sketchtool 3.7.2 (28276) - http://www.bohemiancoding.com/sketch -->
    <title>A8610E86-8DD0-4888-9E4E-55F0751CBF16</title>
    <desc>Created with sketchtool.</desc>
    <defs></defs>
    <g id="Page" stroke="none" stroke-width="1" fill="none" fill-rule="evenodd">
        <g id="Desktop" transform="translate(-373.000000, -158.000000)">
            <g id="::-main-content" transform="translate(234.000000, 0.000000)">
                <g id="::-header">
                    <g id="::-logo" transform="translate(140.000000, 159.000000)">
                        <polygon id="Fill-1" fill="#FAFF4E" points="25.1002 123.612 37.508 123.612 37.508 84.9545 53.2888 123.612 66.0581 123.612 66.0581 57.4978 53.6502 57.4978 53.6502 92.1904 39.074 57.4978 25.1002 57.4978"></polygon>
                        <polygon id="Fill-2" fill="#FAFF4E" points="98.797 123.6506 134.936 123.6506 134.936 113.441 111.205 113.441 111.205 95.2026 124.938 95.2026 124.938 84.9931 111.205 84.9931 111.205 67.7459 133.732 67.7459 133.732 57.5364 98.797 57.5364"></polygon>
                        <polygon id="Fill-3" fill="#FAFF4E" points="473.607 123.6506 509.746 123.6506 509.746 113.441 486.015 113.441 486.015 95.2026 499.748 95.2026 499.748 84.9931 486.015 84.9931 486.015 67.7459 508.542 67.7459 508.542 57.5364 473.607 57.5364"></polygon>
                        <path d="M188.068,56.7048 C182.888,56.7048 177.588,58.2908 174.817,60.5706 C168.673,65.7249 166.505,73.6546 166.505,90.5054 C166.505,107.5543 168.673,115.3849 174.817,120.5393 C177.588,122.9182 183.008,124.405 188.791,124.405 C194.573,124.405 200.355,122.8191 203.126,120.5393 C209.39,115.484 211.438,107.6534 211.438,89.5141 C211.438,64.9319 205.656,56.7048 188.068,56.7048 L188.068,56.7048 Z M188.67,66.9144 C191.682,66.9144 194.693,68.1038 195.898,69.7889 C197.946,72.5643 199.03,80.1967 199.03,91.001 C199.03,101.0123 197.826,108.5455 195.898,111.3209 C194.693,113.006 191.802,114.1955 188.911,114.1955 C185.9,114.1955 183.249,113.006 182.045,111.3209 C179.997,108.3473 178.913,101.0123 178.913,90.5054 C178.913,80.0976 179.997,72.8617 182.045,69.7889 C183.129,68.1038 185.779,66.9144 188.67,66.9144 L188.67,66.9144 Z" id="Fill-4" fill="#FAFF4E"></path>
                        <polygon id="Fill-5" fill="#FAFF4E" points="245.438 123.6069 257.845 123.6069 257.845 84.9494 273.626 123.6069 286.395 123.6069 286.395 57.4927 273.988 57.4927 273.988 92.1853 259.411 57.4927 245.438 57.4927"></polygon>
                        <path d="M342.782,55.9504 C337.602,55.9504 332.301,57.5364 329.531,59.8162 C323.387,64.9705 321.219,72.9002 321.219,89.7509 C321.219,106.7999 323.387,114.6305 329.531,119.7848 C332.301,122.1638 337.722,123.6506 343.505,123.6506 C349.287,123.6506 355.069,122.0646 357.84,119.7848 C364.104,114.7296 366.152,106.899 366.152,88.7597 C366.152,64.1775 360.37,55.9504 342.782,55.9504 L342.782,55.9504 Z M343.384,66.16 C346.396,66.16 349.407,67.3494 350.612,69.0345 C352.66,71.8099 353.744,79.4423 353.744,90.2466 C353.744,100.2579 352.539,107.7911 350.612,110.5665 C349.407,112.2516 346.516,113.441 343.625,113.441 C340.613,113.441 337.963,112.2516 336.759,110.5665 C334.711,107.5929 333.626,100.2579 333.626,89.7509 C333.626,79.3432 334.711,72.1073 336.759,69.0345 C337.843,67.3494 340.493,66.16 343.384,66.16 L343.384,66.16 Z" id="Fill-6" fill="#FAFF4E"></path>
                        <path d="M400.008,123.6506 L419.282,123.6506 C422.173,123.6506 424.221,123.4523 425.907,123.155 C430.967,122.0646 435.304,118.8927 437.833,114.3331 C439.881,110.8639 440.845,102.9341 440.845,90.5439 C440.845,82.8124 440.363,76.1713 439.399,71.116 C438.797,67.5477 436.508,64.0784 433.135,61.303 C429.642,58.5276 425.907,57.5364 419.282,57.5364 L400.008,57.5364 L400.008,123.6506 Z M412.415,113.441 L412.415,67.7459 L417.716,67.7459 C423.137,67.7459 425.426,68.7371 426.63,71.6117 C427.714,73.7923 428.437,82.0194 428.437,90.5439 C428.437,97.3833 427.955,103.2315 427.233,107.9894 C426.871,109.4762 426.148,110.7648 425.064,111.756 C423.619,112.9454 421.691,113.441 417.716,113.441 L412.415,113.441 Z" id="Fill-7" fill="#FAFF4E"></path>
                        <polygon id="Fill-8" fill="#7EC5ED" points="22.6975 119.2626 35.1053 119.2626 35.1053 80.6051 50.8861 119.2626 63.6554 119.2626 63.6554 53.1484 51.2475 53.1484 51.2475 87.841 36.6713 53.1484 22.6975 53.1484"></polygon>
                        <polygon id="Fill-9" fill="#7EC5ED" points="96.394 119.3011 132.534 119.3011 132.534 109.0916 108.802 109.0916 108.802 90.8532 122.535 90.8532 122.535 80.6437 108.802 80.6437 108.802 63.3965 131.329 63.3965 131.329 53.1869 96.394 53.1869"></polygon>
                        <polygon id="Fill-10" fill="#7EC5ED" points="471.204 119.3011 507.344 119.3011 507.344 109.0916 483.612 109.0916 483.612 90.8532 497.345 90.8532 497.345 80.6437 483.612 80.6437 483.612 63.3965 506.139 63.3965 506.139 53.1869 471.204 53.1869"></polygon>
                        <path d="M185.665,52.3554 C180.485,52.3554 175.185,53.9413 172.414,56.2211 C166.27,61.3755 164.102,69.3052 164.102,86.1559 C164.102,103.2049 166.27,111.0355 172.414,116.1898 C175.185,118.5687 180.606,120.0556 186.388,120.0556 C192.17,120.0556 197.953,118.4696 200.723,116.1898 C206.987,111.1346 209.035,103.304 209.035,85.1647 C209.035,60.5825 203.253,52.3554 185.665,52.3554 L185.665,52.3554 Z M186.268,62.5649 C189.279,62.5649 192.291,63.7544 193.495,65.4395 C195.543,68.2149 196.627,75.8472 196.627,86.6515 C196.627,96.6628 195.423,104.1961 193.495,106.9715 C192.291,108.6565 189.4,109.846 186.508,109.846 C183.497,109.846 180.847,108.6565 179.642,106.9715 C177.594,103.9978 176.51,96.6628 176.51,86.1559 C176.51,75.7481 177.594,68.5122 179.642,65.4395 C180.726,63.7544 183.376,62.5649 186.268,62.5649 L186.268,62.5649 Z" id="Fill-11" fill="#7EC5ED"></path>
                        <polygon id="Fill-12" fill="#7EC5ED" points="241.784 118.9764 254.192 118.9764 254.192 80.3189 269.973 118.9764 282.742 118.9764 282.742 52.8622 270.334 52.8622 270.334 87.5548 255.758 52.8622 241.784 52.8622"></polygon>
                        <path d="M338.679,53.2022 C333.499,53.2022 328.199,54.7882 325.428,57.068 C319.284,62.2223 317.116,70.152 317.116,87.0027 C317.116,104.0517 319.284,111.8823 325.428,117.0366 C328.199,119.4156 333.619,120.9024 339.402,120.9024 C345.184,120.9024 350.966,119.3164 353.737,117.0366 C360.001,111.9814 362.049,104.1508 362.049,86.0115 C362.049,61.4293 356.267,53.2022 338.679,53.2022 L338.679,53.2022 Z M339.281,63.4118 C342.293,63.4118 345.304,64.6012 346.509,66.2863 C348.557,69.0617 349.641,76.6941 349.641,87.4984 C349.641,97.5097 348.437,105.0429 346.509,107.8183 C345.304,109.5034 342.413,110.6929 339.522,110.6929 C336.511,110.6929 333.86,109.5034 332.656,107.8183 C330.608,104.8447 329.524,97.5097 329.524,87.0027 C329.524,76.595 330.608,69.3591 332.656,66.2863 C333.74,64.6012 336.39,63.4118 339.281,63.4118 L339.281,63.4118 Z" id="Fill-13" fill="#7EC5ED"></path>
                        <path d="M396.354,119.0201 L415.629,119.0201 C418.52,119.0201 420.568,118.8218 422.254,118.5245 C427.314,117.4341 431.65,114.2622 434.18,109.7026 C436.228,106.2334 437.192,98.3036 437.192,85.9134 C437.192,78.1819 436.71,71.5407 435.746,66.4855 C435.144,62.9171 432.855,59.4479 429.482,56.6725 C425.989,53.8971 422.254,52.9058 415.629,52.9058 L396.354,52.9058 L396.354,119.0201 Z M408.762,108.8105 L408.762,63.1154 L414.063,63.1154 C419.484,63.1154 421.772,64.1066 422.977,66.9811 C424.061,69.1618 424.784,77.3889 424.784,85.9134 C424.784,92.7528 424.302,98.601 423.579,103.3588 C423.218,104.8456 422.495,106.1342 421.411,107.1254 C419.965,108.3149 418.038,108.8105 414.063,108.8105 L408.762,108.8105 Z" id="Fill-14" fill="#7EC5ED"></path>
                        <polygon id="Fill-15" fill="#FFFFFF" points="1.9867 26.568 1.9867 24.326 32.2895 6.831 62.5923 24.326 62.5923 59.3165 61.0255 60.2211 61.0255 62.4633 30.7227 79.9586 0.4199 62.4633 0.4199 27.4727"></polygon>
                        <polygon id="Stroke-16" stroke-opacity="0.8" stroke="#7EC5ED" stroke-width="2" stroke-linecap="round" stroke-linejoin="round" points="30.7227 3.878 0.4199 21.374 0.4199 56.3645 30.7227 73.8598 61.0255 56.3645 61.0255 21.374"></polygon>
                        <polygon id="Stroke-17" stroke-opacity="0.8" stroke="#F0566D" stroke-width="2" stroke-linecap="round" stroke-linejoin="round" points="32.2895 0.732 1.9867 18.227 1.9867 53.2176 32.2895 70.713 62.5923 53.2176 62.5923 18.227"></polygon>
                        <polygon id="Fill-18" fill-opacity="0.7976" fill="#89EDFF" points="14.7496 51.8885 18.7706 51.8885 18.7706 36.6635 23.8846 51.8885 28.0227 51.8885 28.0227 25.8498 24.0017 25.8498 24.0017 39.5133 19.2781 25.8498 14.7496 25.8498"></polygon>
                        <polygon id="Fill-19" fill-opacity="0.7976" fill="#89EDFF" points="34.9842 51.8885 46.6958 51.8885 46.6958 47.8675 39.0052 47.8675 39.0052 40.6844 43.4556 40.6844 43.4556 36.6635 39.0052 36.6635 39.0052 29.8708 46.3054 29.8708 46.3054 25.8498 34.9842 25.8498"></polygon>
                        <polygon id="Fill-20" fill-opacity="0.7976" fill="#FF2E91" points="16.3164 48.7417 20.3374 48.7417 20.3374 33.5167 25.4514 48.7417 29.5895 48.7417 29.5895 22.703 25.5686 22.703 25.5686 36.3665 20.8449 22.703 16.3164 22.703"></polygon>
                        <polygon id="Fill-21" fill-opacity="0.7976" fill="#FF2E91" points="36.551 48.7417 48.2626 48.7417 48.2626 44.7207 40.572 44.7207 40.572 37.5376 45.0224 37.5376 45.0224 33.5167 40.572 33.5167 40.572 26.724 47.8722 26.724 47.8722 22.703 36.551 22.703"></polygon>
                    </g>
                </g>
            </g>
        </g>
    </g>
</svg>