<?xml version="1.0" encoding="UTF-8"?>
<svg width="204px" height="57px" viewBox="876 2618 204 57" version="1.1" xmlns="http://www.w3.org/2000/svg" xmlns:xlink="http://www.w3.org/1999/xlink">
    <g stroke="none" stroke-width="1" fill="none" fill-rule="evenodd" transform="translate(877.000000, 2618.000000)">
        <path d="M105.939796,40.4698459 C105.662743,39.7103595 105.181136,39.1557649 104.492386,38.8117108 C103.912386,38.5236297 102.980243,38.3747108 101.701136,38.3747108 C101.328279,38.3747108 100.877743,38.3952514 100.354707,38.4311973 C100.113386,38.4471162 99.9756357,38.456873 99.9424929,38.456873 L99.4660643,38.4825486 C99.2330286,38.4979541 98.9999929,38.5087378 98.7669571,38.5236297 L98.7669571,38.9349541 C99.0207071,38.9349541 99.2174929,38.9652514 99.3469571,39.0114676 C99.5696357,39.1044135 99.6835643,39.4017378 99.6835643,39.8947108 L99.6835643,44.1003865 C99.6835643,44.4141432 99.5955286,44.6298189 99.4246357,44.7376568 C99.30035,44.8198189 99.08285,44.8609 98.7669571,44.8609 L98.7669571,45.2814676 L101.896886,45.2814676 C103.454082,45.2814676 104.568511,44.9117378 105.237582,44.1722784 C105.846582,43.4995757 106.152118,42.6836027 106.152118,41.7330892 C106.152118,41.2811973 106.080136,40.8606297 105.939796,40.4698459 Z M104.106064,43.8949811 C103.634814,44.5476568 102.899457,44.8706568 101.894814,44.8706568 C101.527136,44.8706568 101.290993,44.8254676 101.190529,44.7294405 C101.087993,44.6349541 101.04035,44.4064405 101.04035,44.0433865 L101.04035,38.9611432 L101.04035,38.9498459 C101.278564,38.9144135 101.532314,38.8990081 101.806779,38.8990081 C102.764814,38.8990081 103.484636,39.1557649 103.950707,39.6790351 C104.437493,40.2187378 104.680886,40.9576838 104.680886,41.8927919 C104.680886,42.6933595 104.489279,43.3557919 104.106064,43.8949811 Z M91.4590607,38.5502297 L91.458025,38.5502297 L91.458025,38.9707973 L91.6154536,38.9707973 C91.6889893,38.9707973 91.7449179,38.9836351 91.8039536,38.9944189 C91.9329,39.0334459 92.0312929,39.1073919 92.0918821,39.2234459 C92.1592036,39.3518243 92.1939,39.5623649 92.1939,39.8653378 L92.1939,43.9950135 C92.1939,44.297473 92.1592036,44.5080135 92.0918821,44.6363919 C92.0287036,44.7575811 91.9240964,44.8335811 91.7853107,44.8710676 C91.7309357,44.8797973 91.6817393,44.8926351 91.6154536,44.8926351 L91.458025,44.8926351 L91.458025,45.3137162 L91.4590607,45.3137162 L94.3994536,45.3137162 L96.4304893,45.3137162 L96.4304893,43.7793378 L96.0731679,43.7793378 C96.0576321,44.0920676 96.0193107,44.3180135 95.9592393,44.4361216 C95.8691321,44.620473 95.7003107,44.7077703 95.4532929,44.7077703 L93.5543107,44.7077703 L93.5543107,43.9369865 L93.5543107,42.1895 L94.9240429,42.1895 C95.1907393,42.1895 95.3849357,42.2341757 95.5206143,42.3127432 C95.6184893,42.3851486 95.6972036,42.4786081 95.7375964,42.6162297 C95.7386321,42.6208514 95.7396679,42.6249595 95.7407036,42.6285541 C95.7629714,42.7091757 95.7712571,42.8052027 95.7748821,42.9068784 C95.7759179,42.9351216 95.7800607,42.9566892 95.7800607,42.9869865 L96.1751857,42.9869865 L96.1751857,42.9618243 L96.1751857,40.8189324 L96.1751857,40.7922297 L95.7800607,40.7922297 C95.7800607,40.8235541 95.7759179,40.8461486 95.7743643,40.8749054 C95.7712571,40.9755541 95.7629714,41.0700405 95.7412214,41.1496351 C95.7396679,41.1547703 95.7381143,41.1599054 95.7370786,41.1650405 C95.6972036,41.2990676 95.6215964,41.3909865 95.5273464,41.4628784 C95.39115,41.544527 95.1954,41.5902297 94.9240429,41.5902297 L93.5543107,41.5902297 L93.5543107,39.9254189 L93.5543107,39.1515541 L95.4532929,39.1515541 C95.7003107,39.1515541 95.8691321,39.2388514 95.9592393,39.4232027 C96.0193107,39.5418243 96.0576321,39.7677703 96.0731679,40.0805 L96.4304893,40.0805 L96.4304893,38.5450946 L91.4590607,38.5450946 L91.4590607,38.5502297 Z M88.1798857,38.8117108 C87.5998857,38.5236297 86.6677429,38.3747108 85.3886357,38.3747108 C85.0157786,38.3747108 84.5652429,38.3952514 84.0422071,38.4311973 C83.8008857,38.4471162 83.6631357,38.456873 83.6299929,38.456873 L83.1535643,38.4825486 C82.9205286,38.4979541 82.6874929,38.5087378 82.4544571,38.5236297 L82.4544571,38.9349541 C82.7082071,38.9349541 82.9049929,38.9652514 83.0344571,39.0114676 C83.2571357,39.1044135 83.3710643,39.4017378 83.3710643,39.8947108 L83.3710643,44.1003865 C83.3710643,44.4141432 83.2830286,44.6298189 83.1121357,44.7376568 C82.98785,44.8198189 82.77035,44.8609 82.4544571,44.8609 L82.4544571,45.2814676 L85.5843857,45.2814676 C87.1415821,45.2814676 88.2554929,44.9117378 88.9245643,44.1722784 C89.5340821,43.4995757 89.8396179,42.6836027 89.8396179,41.7330892 C89.8396179,41.2811973 89.7671179,40.8606297 89.6272964,40.4698459 C89.3502429,39.7103595 88.8686357,39.1557649 88.1798857,38.8117108 Z M87.7935643,43.8949811 C87.3223143,44.5476568 86.5869571,44.8706568 85.5823143,44.8706568 C85.2146357,44.8706568 84.9784929,44.8254676 84.8780286,44.7294405 C84.7754929,44.6349541 84.72785,44.4064405 84.72785,44.0433865 L84.72785,38.9611432 L84.72785,38.9498459 C84.9660643,38.9144135 85.2198143,38.8990081 85.4942786,38.8990081 C86.4523143,38.8990081 87.1721357,39.1557649 87.6382071,39.6790351 C88.1249929,40.2187378 88.3683857,40.9576838 88.3683857,41.8927919 C88.3683857,42.6933595 88.1767786,43.3557919 87.7935643,43.8949811 Z M78.3133607,38.926327 L78.4117536,38.926327 C78.6810393,38.926327 78.877825,38.9499486 79.0124679,38.9961649 C79.2351464,39.0731919 79.349075,39.361273 79.349075,39.8542459 L79.349075,43.1402189 L75.3305036,38.5031919 L73.3005036,38.5031919 L73.3005036,38.9294081 C73.61795,38.9294081 73.8820571,39.0115703 74.0892,39.171273 L74.0892,44.1672459 C74.0892,44.4291378 74.0198071,44.6140027 73.8851643,44.7167054 C73.7753786,44.8091378 73.5930929,44.8553541 73.3372714,44.8553541 L73.2803071,44.8553541 L73.2803071,45.2815703 L75.6655571,45.2815703 L75.6655571,44.8553541 C75.4076643,44.8553541 75.2098429,44.8296784 75.0700214,44.778327 C74.8162714,44.6858946 74.6919857,44.4188676 74.6919857,43.9721108 L74.6919857,39.8598946 L79.4008607,45.3031378 L79.9446107,45.3031378 L79.9446107,39.4798946 C79.9446107,39.2416243 80.0326464,39.0829486 80.2035393,39.0007865 C80.3122893,38.9489216 80.4935393,38.9232459 80.7524679,38.9232459 L80.8508607,38.9232459 L80.8508607,38.5021649 L78.3133607,38.5021649 L78.3133607,38.926327 Z M69.244025,38.9087649 L69.4061143,38.9087649 C69.6080786,38.9087649 69.7686143,38.9498459 69.8877214,39.026873 C70.1052214,39.180927 70.21915,39.5152243 70.21915,40.0333595 L70.21915,42.6836027 C70.21915,43.3301162 70.0430786,43.8282243 69.6857571,44.1830622 C69.34915,44.5163324 68.8830786,44.6857919 68.2875429,44.6857919 C67.9664714,44.6857919 67.6712929,44.6298189 67.4071857,44.5111973 C66.8064714,44.2493054 66.5061143,43.7106297 66.5061143,42.9039 L66.5061143,39.6584946 C66.5061143,39.1655216 66.73915,38.9195486 67.2052214,38.9195486 L67.3761143,38.9195486 L67.3761143,38.4979541 L64.2948643,38.4979541 L64.2948643,38.9241703 L64.4657571,38.9241703 C64.7246857,38.9241703 64.9007571,38.9760351 65.0043286,39.0782243 C65.1027214,39.180927 65.1545071,39.3760622 65.1545071,39.6641432 L65.1545071,42.9146838 C65.1545071,43.7927919 65.4496857,44.4444405 66.0452214,44.8757919 C66.5475429,45.2460351 67.2155786,45.4303865 68.0545071,45.4303865 C68.9348643,45.4303865 69.6132571,45.1941703 70.0845071,44.7217378 C70.5712929,44.2339 70.8198643,43.5047108 70.8198643,42.5444405 L70.8198643,39.8387378 C70.8198643,39.4946838 70.8923643,39.2584676 71.0425429,39.1193054 C71.1808107,38.9960622 71.4065964,38.9349541 71.7245607,38.9349541 L71.7970607,38.9349541 L71.7970607,38.5087378 L69.244025,38.5087378 L69.244025,38.9087649 Z M57.1077839,38.9614514 L57.2331054,38.9614514 C57.4785696,38.9614514 57.6494625,39.0487486 57.7406054,39.2233432 C57.8079268,39.3517216 57.8426232,39.5622622 57.8426232,39.8652351 L57.8426232,44.2711811 C57.8426232,44.5022622 57.7980875,44.6614514 57.7131589,44.7538838 C57.6266768,44.8463162 57.4764982,44.8925324 57.2641768,44.8925324 L57.1067482,44.8925324 L57.1067482,45.3136135 L60.0481768,45.3136135 L60.0481768,44.8873973 L59.8617482,44.8873973 C59.6763554,44.8873973 59.5380875,44.8617216 59.4474625,44.8103703 C59.2848554,44.7179378 59.2030339,44.4298568 59.2030339,43.9368838 L59.2030339,42.1811811 L60.7519446,42.1811811 C61.2076589,42.1811811 61.4303375,42.443073 61.4303375,42.9617216 L61.8239089,42.9617216 L61.8239089,40.792127 L61.4287839,40.792127 C61.4287839,41.0016405 61.4049625,41.1623703 61.3562839,41.2753432 C61.2703196,41.4853703 61.0077661,41.590127 60.5727661,41.590127 L59.2030339,41.590127 L59.2030339,39.1514514 L61.1020161,39.1514514 C61.3490339,39.1514514 61.5178554,39.2387486 61.6079625,39.4231 C61.6680339,39.5417216 61.7063554,39.7676676 61.7218911,40.0809108 L62.0792125,40.0809108 L62.0792125,38.5449919 L57.1077839,38.5449919 L57.1077839,38.9614514 Z" fill="#ACACAC"></path>
        <path d="M59.9903839,34.0690027 C60.8137768,34.0690027 61.8287768,33.9817054 62.5641339,33.4584351 C63.6827054,32.6758405 64.1073482,31.7895162 64.1073482,30.6941919 C64.1073482,29.3585432 63.4755625,28.2288135 61.4403839,27.1144892 L60.8085982,26.7704351 C59.4228125,26.0053 59.1773482,25.4866514 59.1773482,24.8242189 C59.1773482,23.8177324 60.1768125,23.2425973 61.2798482,23.2425973 C62.2793125,23.2425973 62.7712768,23.6585432 62.9991339,23.9358405 C63.3305625,24.3209757 63.4030625,24.7728676 63.4030625,24.9115162 C63.4030625,25.0861108 63.4548482,25.1734081 63.5594554,25.1734081 C63.6785625,25.1734081 63.7510625,25.0193541 63.7510625,24.7061108 C63.7510625,23.5404351 63.8028482,23.1193541 63.8028482,22.9293541 C63.8028482,22.8215162 63.7319018,22.7701649 63.5920804,22.7342189 C63.1881518,22.6315162 62.3994554,22.4928676 61.4015446,22.4928676 C59.2627946,22.4928676 57.5093304,23.6585432 57.5093304,25.4661108 C57.5093304,26.7704351 58.1048661,27.7615162 59.9277232,28.8244892 L60.8184375,29.3487865 C62.1855804,30.1493541 62.3409375,30.7912459 62.3409375,31.4331378 C62.3409375,32.4755703 61.5330804,33.3125973 60.2021875,33.3125973 C59.2389732,33.3125973 58.0789732,32.9480027 57.7475446,31.8547324 C57.6595089,31.5928405 57.6077232,31.2842189 57.6077232,31.0890838 C57.6077232,30.9863811 57.5870089,30.8482459 57.4471875,30.8482459 C57.3229018,30.8482459 57.2555804,31.0069216 57.2555804,31.2333811 C57.2348661,31.4742189 57.1675446,32.3985432 57.1675446,33.1944892 C57.1675446,33.528273 57.2193304,33.5950297 57.4627232,33.6977324 C58.1255804,34.0007054 59.0732589,34.0880027 59.9691518,34.0880027 L59.9903839,34.0690027 Z M69.6121696,27.5165703 C69.5552054,27.5165703 69.5034196,27.4996243 69.5034196,27.412327 L69.5034196,27.0990838 C69.5034196,24.8601649 69.5034196,24.3209757 69.5344911,23.8485432 C69.5707411,23.3298946 69.6898482,23.1193541 70.1108661,23.0525973 C70.2869375,23.0166514 70.4267589,23.0012459 70.5489732,23.0012459 C70.7405804,23.0012459 70.8286161,22.9498946 70.8286161,22.8471919 C70.8286161,22.7444892 70.7198661,22.7085432 70.5127232,22.7085432 C69.8964732,22.7085432 68.8296875,22.7444892 68.4620089,22.7444892 C68.0373661,22.7444892 67.0223661,22.7136784 66.1989732,22.7136784 C65.9866518,22.7136784 65.8623661,22.7496243 65.8623661,22.852327 C65.8623661,22.9601649 65.9711161,23.0115162 66.1264732,23.0115162 C66.3543304,23.0115162 66.6184375,23.0320568 66.7427232,23.0680027 C67.2346875,23.2066514 67.3745089,23.3658405 67.4107589,23.8690838 C67.4314732,24.3415162 67.4314732,24.7574622 67.4314732,27.0015162 L67.4314732,29.6055432 C67.4314732,30.9607054 67.4314732,32.1263811 67.3589732,32.7528676 C67.3071875,33.1842189 67.2191518,33.4666514 66.9032589,33.5334081 C66.7634375,33.5693541 66.5873661,33.585273 66.3595089,33.585273 C66.1679018,33.585273 66.1109375,33.6725703 66.1109375,33.7439486 C66.1109375,33.8517865 66.2145089,33.9031378 66.4061161,33.9031378 C67.0223661,33.9031378 68.0373661,33.8517865 68.3843304,33.8517865 C68.8245089,33.8517865 69.8912946,33.9031378 70.8907589,33.9031378 C71.0875446,33.9031378 71.2066518,33.8517865 71.2066518,33.7439486 C71.2066518,33.6771919 71.1393304,33.5898946 70.9632589,33.5898946 C70.7405804,33.5898946 70.3884375,33.5744892 70.1761161,33.5385432 C69.7204018,33.4717865 69.6323661,33.1944892 69.5805804,32.7739216 C69.5132589,32.1263811 69.4925446,30.9971649 69.4925446,29.6409757 L69.4925446,28.5112459 C69.4925446,28.4393541 69.5443304,28.4239486 69.6012946,28.4239486 L75.4168304,28.4239486 C75.4530804,28.4239486 75.5048661,28.4598946 75.5048661,28.5112459 L75.5048661,29.6409757 C75.5048661,30.9971649 75.5048661,32.1263811 75.4323661,32.7528676 C75.3805804,33.1893541 75.2925446,33.4666514 74.9766518,33.5334081 C74.8368304,33.5693541 74.6607589,33.5898946 74.4121875,33.5898946 C74.2392232,33.5898946 74.1687946,33.6771919 74.1687946,33.7439486 C74.1687946,33.8466514 74.2930804,33.9031378 74.5028125,33.9031378 C75.0983482,33.9031378 76.1858482,33.8517865 76.5379911,33.8517865 C76.9600446,33.8517865 77.9776339,33.9031378 78.9770982,33.9031378 C79.1687054,33.9031378 79.2929911,33.8466514 79.2929911,33.7439486 C79.2929911,33.6771919 79.2049554,33.5898946 79.0444196,33.5898946 C78.7984375,33.5898946 78.4659732,33.5744892 78.2546875,33.5385432 C77.7834375,33.4666514 77.6954018,33.1893541 77.6436161,32.7739216 C77.5711161,32.1320297 77.5711161,30.9658405 77.5711161,29.6101649 L77.5711161,27.0015162 C77.5711161,24.7574622 77.5711161,24.3415162 77.6058125,23.8690838 C77.6420625,23.3453 77.7611696,23.1398946 78.1650982,23.0680027 C78.3567054,23.0320568 78.4965268,23.0166514 78.6208125,23.0166514 C78.7968839,23.0166514 78.9004554,22.9653 78.9004554,22.8574622 C78.9004554,22.7547595 78.7942946,22.7188135 78.5664375,22.7188135 C77.9709018,22.7188135 76.9559018,22.7547595 76.5861518,22.7547595 C76.1822232,22.7547595 75.0947232,22.7239486 74.2713304,22.7239486 C74.0434732,22.7239486 73.9399018,22.7598946 73.9399018,22.8625973 C73.9399018,22.9704351 74.0279375,23.0217865 74.2040089,23.0217865 C74.4163304,23.0217865 74.6804375,23.0371919 74.7995446,23.0731378 C75.2915089,23.2117865 75.4313304,23.3709757 75.4675804,23.8742189 C75.4841518,24.3466514 75.5038304,24.8858405 75.5038304,27.1247595 L75.5038304,27.4380027 C75.5038304,27.5253 75.4520446,27.5458405 75.4157946,27.5458405 L69.6121696,27.5458405 L69.6121696,27.5165703 Z M81.9682411,29.1598135 C81.9682411,31.2980838 82.5793125,32.3934081 83.3716339,33.0717595 C84.4902054,34.0520568 86.0852054,34.0828676 86.8930625,34.0828676 C87.8925268,34.0828676 89.0628839,33.929327 90.1503839,33.0198946 C91.4450268,31.9620568 91.6210982,30.2212459 91.6210982,28.5728676 L91.6210982,26.9809757 C91.6210982,24.7369216 91.6366339,24.3209757 91.6521696,23.8536784 C91.6858304,23.3350297 91.7919911,23.1244892 92.2124911,23.0577324 C92.4040982,23.0217865 92.4921339,23.0012459 92.6682054,23.0012459 C92.8442768,23.0012459 92.9307589,22.9498946 92.9307589,22.8420568 C92.9307589,22.7393541 92.8271875,22.7034081 92.6148661,22.7034081 C92.0193304,22.7034081 90.9836161,22.7393541 90.8127232,22.7393541 C90.7971875,22.7393541 89.7614732,22.7085432 88.9743304,22.7085432 C88.7620089,22.7085432 88.6584375,22.7444892 88.6584375,22.8471919 C88.6584375,22.9550297 88.7464732,23.0063811 88.9225446,23.0063811 C89.0986161,23.0063811 89.3627232,23.0217865 89.4818304,23.0577324 C89.9686161,23.1963811 90.0929018,23.3504351 90.1291518,23.8588135 C90.1446875,24.3261108 90.1654018,24.7471919 90.1654018,26.9861108 L90.1654018,28.8450297 C90.1654018,30.3598946 90.1291518,31.6436784 89.2695089,32.4447595 C88.6532589,33.0353 87.8661161,33.2253 87.1980804,33.2253 C86.6698661,33.2253 85.9345089,33.1739486 85.2509375,32.6347595 C84.5000446,32.0447324 84.0754018,31.2128405 84.0754018,29.0555703 L84.0754018,26.9701919 C84.0754018,24.7281919 84.0754018,24.3101919 84.1064732,23.8413541 C84.1427232,23.3191108 84.2618304,23.1106243 84.6657589,23.0413 C84.8573661,23.0053541 84.9454018,22.9848135 85.1214732,22.9848135 C85.2820089,22.9848135 85.3648661,22.9334622 85.3648661,22.8256243 C85.3648661,22.7177865 85.2561161,22.6869757 85.0282589,22.6869757 C84.4637946,22.6869757 83.4332589,22.7177865 83.0448661,22.7177865 C82.5891518,22.7177865 81.5534375,22.6818405 80.7300446,22.6818405 C80.5021875,22.6818405 80.3934375,22.7126514 80.3934375,22.8204892 C80.3934375,22.9231919 80.4814732,22.9745432 80.6575446,22.9745432 C80.8646875,22.9745432 81.1287946,22.9899486 81.2530804,23.0258946 C81.7398661,23.1645432 81.8848661,23.3031919 81.9211161,23.8269757 C81.9521875,24.294273 81.9366518,24.7102189 81.9366518,26.954273 L81.9366518,29.1264351 L81.9682411,29.1598135 Z M98.0114554,29.5942459 C98.0114554,30.9499216 98.0114554,32.1155973 97.9389554,32.7420838 C97.8819911,33.1754892 97.7991339,33.454327 97.4832411,33.5231378 C97.3589554,33.5585703 97.1673482,33.5760297 96.9394911,33.5760297 C96.7478839,33.5760297 96.6909196,33.663327 96.6909196,33.7321378 C96.6909196,33.8368946 96.7944911,33.891327 96.9860982,33.891327 C97.5971696,33.891327 98.6484196,33.8404892 99.0005625,33.8404892 C99.4355625,33.8404892 100.471277,33.891327 101.486277,33.891327 C101.662348,33.891327 101.783527,33.8374081 101.783527,33.7321378 C101.783527,33.663327 101.716205,33.5770568 101.53858,33.5770568 C101.310723,33.5770568 100.95858,33.5606243 100.751438,33.5246784 C100.295723,33.4584351 100.207688,33.1801108 100.155902,32.7595432 C100.083402,32.1176514 100.067866,30.9524892 100.067866,29.5963 L100.067866,23.5964081 L102.00983,23.6297865 C103.397688,23.6472459 103.801616,24.0996514 103.832688,24.4806784 L103.853402,24.6347324 C103.874116,24.8606784 103.910366,24.9300027 104.029473,24.9300027 C104.116991,24.9300027 104.153759,24.8427054 104.169295,24.6860838 C104.169295,24.3040297 104.205027,23.2087054 104.205027,22.8970027 C104.205027,22.6710568 104.190009,22.5837595 104.086438,22.5837595 C104.034652,22.5837595 103.910366,22.6186784 103.666455,22.6541108 C103.439116,22.6890297 103.107688,22.7234351 102.615723,22.7234351 L96.3600089,22.7234351 C95.8525089,22.7234351 95.2776875,22.7064892 94.8219732,22.6541108 C94.4387589,22.6027595 94.2782232,22.4805432 94.1591161,22.4805432 C94.0710804,22.4805432 94.0192946,22.5663 93.9830446,22.7578405 C93.9519732,22.8795432 93.6516161,24.3050568 93.6516161,24.5484622 C93.6516161,24.7045703 93.6878661,24.7923811 93.7914375,24.7923811 C93.9001875,24.7923811 93.9312589,24.7204892 93.9675089,24.5972459 C94.0037589,24.4894081 94.0762589,24.2994081 94.2316161,24.0940027 C94.4594732,23.7602189 94.8271518,23.6575162 95.7230446,23.6369757 L98.0223304,23.5856243 L98.0223304,29.5680568 L98.0114554,29.5942459 Z M109.109134,29.5942459 C109.109134,30.9499216 109.109134,32.1155973 109.036116,32.7420838 C108.984848,33.1754892 108.896812,33.454327 108.58092,33.5231378 C108.456116,33.5585703 108.265027,33.5760297 108.03717,33.5760297 C107.845562,33.5760297 107.78808,33.663327 107.78808,33.7321378 C107.78808,33.8368946 107.89217,33.891327 108.083777,33.891327 C108.69433,33.891327 109.746098,33.8404892 110.098241,33.8404892 C110.533241,33.8404892 111.568955,33.891327 112.583955,33.891327 C112.760027,33.891327 112.88017,33.8374081 112.88017,33.7321378 C112.88017,33.663327 112.812848,33.5770568 112.637295,33.5770568 C112.409437,33.5770568 112.056777,33.5606243 111.848598,33.5246784 C111.392884,33.4584351 111.30433,33.1801108 111.253062,32.7595432 C111.18367,32.1176514 111.165027,30.9524892 111.165027,29.5963 L111.165027,23.5964081 L113.11217,23.6297865 C114.496402,23.6472459 114.90033,24.0996514 114.935027,24.4806784 L114.952116,24.6347324 C114.969723,24.8606784 115.00442,24.9300027 115.128705,24.9300027 C115.215705,24.9300027 115.250402,24.8427054 115.268527,24.6860838 C115.268527,24.3040297 115.302705,23.2087054 115.302705,22.8970027 C115.302705,22.6710568 115.28717,22.5837595 115.181009,22.5837595 C115.126634,22.5837595 115.004937,22.6186784 114.758955,22.6541108 C114.531098,22.6890297 114.19967,22.7234351 113.707705,22.7234351 L107.451991,22.7234351 C106.943973,22.7234351 106.363973,22.7064892 105.908259,22.6541108 C105.525562,22.6027595 105.365027,22.4805432 105.24592,22.4805432 C105.157884,22.4805432 105.106098,22.5663 105.06933,22.7578405 C105.033598,22.8795432 104.73583,24.3050568 104.73583,24.5484622 C104.73583,24.7045703 104.77208,24.7923811 104.875134,24.7923811 C104.979223,24.7923811 105.015473,24.7204892 105.051723,24.5972459 C105.085902,24.4894081 105.154777,24.2994081 105.31583,24.0940027 C105.54317,23.7602189 105.910848,23.6575162 106.80467,23.6369757 L109.103437,23.5856243 L109.103437,29.5680568 L109.109134,29.5942459 Z M120.222348,26.9855973 C120.222348,24.7430838 120.222348,24.3255973 120.25342,23.8562459 C120.284491,23.3324622 120.408259,23.1244892 120.828241,23.0551649 C121.004313,23.0192189 121.247705,23.0038135 121.423259,23.0038135 C121.615384,23.0038135 121.702902,22.9504081 121.702902,22.8456514 C121.702902,22.7378135 121.594152,22.7070027 121.366813,22.7070027 C120.771277,22.7070027 119.510813,22.7378135 119.140027,22.7378135 C118.720563,22.7378135 117.741813,22.7044351 117.021473,22.7044351 C116.794134,22.7044351 116.687455,22.7378135 116.687455,22.8430838 C116.687455,22.947327 116.775491,22.9997054 116.951563,22.9997054 C117.14317,22.9997054 117.33633,23.0151108 117.459063,23.0510568 C117.948955,23.1897054 118.090848,23.3473541 118.123991,23.8521378 C118.140045,24.3209757 118.140045,24.7384622 118.140045,26.9809757 L118.140045,29.5896243 C118.140045,30.9453 118.140045,32.1109757 118.067545,32.7374622 C118.015241,33.1739486 117.927205,33.4512459 117.61183,33.5180027 C117.472009,33.5539486 117.295938,33.5744892 117.067563,33.5744892 C116.876473,33.5744892 116.819509,33.6617865 116.819509,33.7285432 C116.819509,33.8312459 116.92308,33.8877324 117.119866,33.8877324 C117.435759,33.8877324 117.818455,33.872327 118.186134,33.8569216 C118.553813,33.8569216 118.885759,33.8363811 119.06183,33.8363811 C119.688438,33.8363811 120.340938,33.8569216 121.112545,33.8774622 C121.884152,33.9134081 122.774866,33.929327 123.877902,33.929327 C124.685759,33.929327 124.75308,33.8625703 124.856134,33.528273 C124.980938,33.0969216 125.084509,31.9980027 125.084509,31.8290568 C125.084509,31.6539486 125.047741,31.4998946 124.944688,31.4998946 C124.820402,31.4998946 124.784152,31.5871919 124.768098,31.7263541 C124.732366,32.0036514 124.577009,32.4242189 124.385402,32.6142189 C123.997009,33.0147595 123.401473,33.0306784 122.57808,33.0306784 C121.387009,33.0306784 120.791473,32.9433811 120.527366,32.7169216 C120.195938,32.4396243 120.195938,31.5050297 120.195938,29.6055432 L120.195938,26.9861108 L120.222348,26.9855973 Z M127.82967,29.5942459 C127.82967,30.9499216 127.82967,32.1155973 127.75717,32.7420838 C127.704866,33.1765162 127.61683,33.4548405 127.301455,33.5231378 C127.161116,33.5585703 126.985562,33.5765432 126.757705,33.5765432 C126.566098,33.5765432 126.509134,33.6628135 126.509134,33.7326514 C126.509134,33.8374081 126.612705,33.891327 126.809491,33.891327 C127.125384,33.891327 127.50808,33.8759216 127.875759,33.8589757 C128.243437,33.8589757 128.575384,33.8384351 128.751455,33.8384351 C129.20717,33.8384351 129.781991,33.8589757 130.538062,33.8743811 C131.289991,33.9087865 132.221098,33.9262459 133.375402,33.9262459 C133.95592,33.9262459 134.095741,33.9262459 134.198795,33.5411108 C134.287348,33.245327 134.411116,32.2367865 134.411116,31.9076243 C134.411116,31.7499757 134.390402,31.5584351 134.271812,31.5584351 C134.163062,31.5584351 134.128366,31.6287865 134.095741,31.7843811 C133.986991,32.3934081 133.816098,32.7066514 133.427705,32.8802189 C133.023777,33.0512189 132.376455,33.0702189 131.972527,33.0702189 C130.393062,33.0702189 129.921812,32.8437595 129.885562,31.8341919 C129.867955,31.400273 129.885562,30.148327 129.885562,29.6440568 L129.885562,28.4629757 C129.885562,28.3756784 129.901098,28.3037865 129.973598,28.3037865 C130.357848,28.3037865 132.112348,28.3371649 132.391991,28.3720838 C132.96992,28.4234351 133.16308,28.6493811 133.25008,28.9461919 C133.284259,29.1367054 133.284259,29.329273 133.301866,29.4853811 C133.301866,29.5552189 133.336562,29.6075973 133.44117,29.6075973 C133.582545,29.6075973 133.600152,29.3985973 133.600152,29.2763811 C133.600152,29.1736784 133.635884,28.5831378 133.670062,28.2853 C133.758098,27.5407054 133.791241,27.2942189 133.791241,27.2069216 C133.791241,27.1196243 133.736866,27.0528676 133.666955,27.0528676 C133.593937,27.0528676 133.54267,27.1401649 133.418384,27.2428676 C133.278562,27.4020568 133.050705,27.4380027 132.683027,27.4688135 C132.335027,27.5047595 130.337134,27.5047595 129.984991,27.5047595 C129.896955,27.5047595 129.879866,27.4328676 129.879866,27.3507054 L129.879866,23.6837054 C129.879866,23.5964081 129.916634,23.5450568 129.983955,23.5450568 C130.299848,23.5450568 132.14083,23.5779216 132.402348,23.6133541 C133.173955,23.6816514 133.298241,23.8906514 133.419937,24.1525432 C133.508491,24.3240568 133.526098,24.5854351 133.526098,24.6917324 C133.526098,24.8113811 133.543705,24.8817324 133.64883,24.8817324 C133.773116,24.8817324 133.808848,24.7071378 133.824902,24.6373 C133.861152,24.4627054 133.897402,23.8208135 133.912937,23.6636784 C133.949187,22.9858405 134.037223,22.8112459 134.037223,22.7085432 C134.037223,22.6417865 134.018062,22.5698946 133.930545,22.5698946 C133.858045,22.5698946 133.770009,22.6212459 133.681973,22.6417865 C133.562866,22.662327 133.314295,22.7136784 133.034652,22.7290838 C132.739473,22.7496243 129.316437,22.7290838 128.829652,22.7290838 C128.389473,22.7290838 127.410723,22.6931378 126.602866,22.6931378 C126.375009,22.6931378 126.250723,22.7290838 126.250723,22.8317865 C126.250723,22.9396243 126.359473,22.9909757 126.514312,22.9909757 C126.742687,22.9909757 127.006795,23.0115162 127.13108,23.0474622 C127.623045,23.1861108 127.762866,23.3453 127.799116,23.8485432 C127.814652,24.3209757 127.814652,24.7369216 127.814652,26.9809757 L127.814652,29.5896243 L127.82967,29.5942459 Z M139.765759,33.5436784 C139.906098,33.9288135 139.994134,34.0859486 140.185741,34.0859486 C140.41308,34.0859486 140.501634,33.9113541 140.780759,33.300273 C141.407884,31.9445973 143.479313,26.7118946 143.74342,26.0854081 L143.779152,26.0854081 L146.912705,33.3726784 C147.140563,33.9144351 147.244134,34.0885162 147.456455,34.0885162 C147.683795,34.0885162 147.77183,33.9139216 147.942723,33.3906514 C148.694134,31.1820297 150.27308,26.4885162 150.99342,24.6295973 C151.308795,23.7771649 151.485384,23.2215432 151.853063,23.0828946 C152.029134,23.0300027 152.235759,23.0135703 152.396813,23.0135703 C152.536116,23.0135703 152.603438,22.9442459 152.603438,22.8389757 C152.603438,22.7516784 152.494688,22.7188135 152.323795,22.7188135 C151.816813,22.7188135 151.148777,22.7547595 151.045205,22.7547595 C150.899688,22.7547595 150.201098,22.7239486 149.393241,22.7239486 C149.146741,22.7239486 149.025563,22.7598946 149.025563,22.8625973 C149.025563,22.9498946 149.146741,23.0217865 149.287598,23.0217865 C149.901777,23.0217865 150.041598,23.1963811 150.041598,23.4377324 C150.041598,23.6431378 149.986705,23.9409757 149.881063,24.2901649 C149.337313,26.0104351 148.163848,29.9080027 147.866598,30.7609486 L147.811705,30.7609486 L144.725277,23.458273 C144.532116,22.9909757 144.391777,22.7650297 144.218295,22.7650297 C144.077955,22.7650297 143.920009,22.8831378 143.76258,23.3042189 L140.820634,30.8528676 L140.769366,30.8528676 C140.540991,30.1750297 139.137598,25.6971919 138.874009,24.7266514 C138.682402,24.0488135 138.54258,23.5609757 138.54258,23.3709757 C138.54258,23.2117865 138.557598,23.1296243 138.697938,23.0731378 C138.81808,23.0371919 138.962045,23.0217865 139.081152,23.0217865 C139.239098,23.0217865 139.360795,22.9704351 139.360795,22.8677324 C139.360795,22.7598946 139.256188,22.7290838 139.02833,22.7290838 C138.135545,22.7290838 137.381545,22.7598946 137.241205,22.7598946 C137.101902,22.7598946 136.242259,22.7239486 135.455116,22.7239486 C135.22208,22.7239486 135.099348,22.7598946 135.099348,22.8625973 C135.099348,22.9704351 135.187384,23.0217865 135.344813,23.0217865 C135.485152,23.0217865 135.785509,23.0371919 135.940866,23.1450297 C136.168723,23.2836784 136.29042,23.6277324 136.484098,24.1669216 L139.745045,33.5436784 L139.765759,33.5436784 Z M159.298295,34.0828676 C163.278545,34.0828676 165.766848,31.4233811 165.766848,28.0336784 C165.766848,24.6444892 163.343795,22.508273 159.454688,22.508273 C154.773259,22.508273 152.986652,25.7793541 152.986652,28.2955703 C152.986652,30.9196243 154.809509,34.0880027 159.293634,34.0880027 L159.298295,34.0828676 Z M159.93008,33.2668946 C157.019723,33.2668946 155.266777,30.8687865 155.266777,27.828273 C155.266777,24.182327 157.282277,23.2785432 159.000527,23.2785432 C161.489866,23.2785432 163.47067,25.2966514 163.47067,28.5625973 C163.47067,32.7739216 161.015509,33.2766514 159.93008,33.2766514 L159.93008,33.2668946 Z M168.643027,29.5793541 C168.643027,30.9350297 168.643027,32.1007054 168.571562,32.7277054 C168.518741,33.1636784 168.432259,33.4409757 168.115848,33.5077324 C167.975509,33.5441919 167.800473,33.5647324 167.572616,33.5647324 C167.379455,33.5647324 167.327152,33.6520297 167.327152,33.7234081 C167.327152,33.8312459 167.435902,33.8831108 167.627509,33.8831108 C168.243759,33.8831108 169.222509,33.8312459 169.522866,33.8312459 C169.750723,33.8312459 171.035009,33.8831108 171.925723,33.8831108 C172.11733,33.8831108 172.241616,33.8312459 172.241616,33.7234081 C172.241616,33.6566514 172.173777,33.5693541 172.050009,33.5693541 C171.858402,33.5693541 171.526455,33.5539486 171.299116,33.5180027 C170.827866,33.4512459 170.755366,33.1739486 170.70358,32.7374622 C170.636259,32.1109757 170.615545,30.9658405 170.615545,29.5896243 L170.615545,29.3842189 C170.615545,29.2969216 170.66733,29.2661108 170.73983,29.2661108 L172.127687,29.3020568 C172.23592,29.3020568 172.319295,29.3225973 172.40733,29.4098946 C172.603598,29.6358405 173.25092,30.6269216 173.862509,31.4280027 C174.721634,32.5731378 175.301634,33.2715162 175.96967,33.6001649 C176.374116,33.8107054 176.793062,33.8980027 177.652705,33.8980027 L179.129116,33.8980027 C179.320723,33.8980027 179.429473,33.8671919 179.429473,33.7388135 C179.429473,33.6725703 179.361634,33.585273 179.237866,33.585273 C179.11358,33.585273 179.030723,33.585273 178.870187,33.5488135 C178.626277,33.4979757 178.083045,33.4307054 177.222884,32.5787865 C176.29592,31.6595973 175.208937,30.3188135 173.841795,28.6498946 C175.348759,27.4534081 175.980545,26.4777324 175.980545,25.3839486 C175.980545,24.3928676 175.333223,23.648273 174.892527,23.3504351 C174.069652,22.8112459 172.945902,22.7239486 171.967152,22.7239486 C171.495902,22.7239486 170.092509,22.7598946 169.563777,22.7598946 C169.248402,22.7598946 168.269134,22.7290838 167.461795,22.7290838 C167.23342,22.7290838 167.11483,22.7650297 167.11483,22.8677324 C167.11483,22.9704351 167.218402,23.0269216 167.378937,23.0269216 C167.606795,23.0269216 167.865723,23.0474622 167.989491,23.0834081 C168.481455,23.2220568 168.621795,23.3812459 168.657527,23.8844892 C168.67358,24.3569216 168.67358,24.7728676 168.67358,27.0169216 L168.67358,29.6204351 L168.643027,29.5793541 Z M170.605705,23.7201649 C170.605705,23.6020568 170.639884,23.5507054 170.745527,23.5147595 C170.903991,23.4839486 171.272705,23.4634081 171.657473,23.4634081 C172.56942,23.4634081 174.005955,24.0025973 174.005955,26.0925973 C174.005955,27.3096243 173.478259,27.9515162 173.007009,28.2853 C172.742902,28.4753 172.53058,28.5317865 171.919509,28.5317865 C171.531116,28.5317865 171.074884,28.5009757 170.743973,28.3931378 C170.635223,28.3417865 170.604152,28.2904351 170.604152,28.1312459 L170.604152,23.7304351 L170.605705,23.7201649 Z M182.05242,29.5742189 C182.05242,30.9350297 182.05242,32.0955703 181.983027,32.7220568 C181.930205,33.1590568 181.843205,33.4363541 181.527312,33.5025973 C181.404062,33.5385432 181.21142,33.5590838 180.983562,33.5590838 C180.790402,33.5590838 180.73758,33.6463811 180.73758,33.718273 C180.73758,33.8261108 180.843223,33.8774622 181.035866,33.8774622 C181.649527,33.8774622 182.700777,33.8261108 183.051884,33.8261108 C183.489991,33.8261108 184.524152,33.8774622 185.541223,33.8774622 C185.716259,33.8774622 185.838991,33.8261108 185.838991,33.718273 C185.838991,33.6520297 185.76908,33.5647324 185.593009,33.5647324 C185.36567,33.5647324 185.01508,33.5488135 184.805348,33.5128676 C184.349634,33.4461108 184.261598,33.1688135 184.209812,32.7477324 C184.138866,32.1058405 184.121777,30.9401649 184.121777,29.5850027 L184.121777,23.5964081 L186.066848,23.631327 C187.452116,23.6487865 187.855527,24.1011919 187.889705,24.4822189 L187.90783,24.6388405 C187.924402,24.8647865 187.960652,24.9346243 188.082866,24.9346243 C188.170902,24.9346243 188.206634,24.847327 188.227348,24.6917324 C188.227348,24.3096784 188.264116,23.2143541 188.264116,22.9026514 C188.264116,22.6767054 188.248062,22.5894081 188.145009,22.5894081 C188.093223,22.5894081 187.96842,22.6202189 187.725545,22.6561649 C187.497687,22.6921108 187.166259,22.7229216 186.673777,22.7229216 L180.413402,22.7229216 C179.905902,22.7229216 179.325902,22.7023811 178.870187,22.6510297 C178.486973,22.5996784 178.326437,22.4764351 178.20733,22.4764351 C178.119295,22.4764351 178.067509,22.5637324 178.031259,22.7537324 C177.99967,22.8769757 177.699312,24.2994081 177.699312,24.5458946 C177.699312,24.6999486 177.73608,24.7872459 177.839652,24.7872459 C177.943223,24.7872459 177.978955,24.7153541 178.015723,24.5921108 C178.051973,24.484273 178.119295,24.294273 178.279312,24.0888676 C178.507687,23.7550838 178.875366,23.6523811 179.770741,23.6318405 L182.065366,23.5753541 L182.065366,29.5526514 L182.05242,29.5742189 Z M193.272313,27.5057865 C193.219491,27.5057865 193.16667,27.4888405 193.16667,27.4015432 L193.16667,27.0883 C193.16667,24.8468135 193.16667,24.3071108 193.198259,23.8377595 C193.233991,23.3160297 193.353616,23.1075432 193.778259,23.0382189 C193.95433,23.002273 194.093634,22.9858405 194.213259,22.9858405 C194.404866,22.9858405 194.492902,22.9344892 194.492902,22.8317865 C194.492902,22.7290838 194.384152,22.6931378 194.177009,22.6931378 C193.560759,22.6931378 192.493973,22.7290838 192.126295,22.7290838 C191.70683,22.7290838 190.686134,22.698273 189.863259,22.698273 C189.65042,22.698273 189.526652,22.7342189 189.526652,22.8369216 C189.526652,22.9447595 189.629705,22.9961108 189.790759,22.9961108 C190.018098,22.9961108 190.277027,23.0166514 190.40183,23.0525973 C190.893795,23.1912459 191.033098,23.3504351 191.064688,23.8536784 C191.080223,24.3209757 191.080223,24.7420568 191.080223,26.9809757 L191.080223,29.5896243 C191.080223,30.9453 191.080223,32.1109757 191.007723,32.7374622 C190.955938,33.1739486 190.867902,33.4512459 190.552009,33.5180027 C190.412188,33.5539486 190.235598,33.5744892 190.008259,33.5744892 C189.816652,33.5744892 189.764866,33.6617865 189.764866,33.7341919 C189.764866,33.8420297 189.86792,33.8928676 190.059527,33.8928676 C190.671116,33.8928676 191.691295,33.8420297 192.038259,33.8420297 C192.473259,33.8420297 193.545223,33.8928676 194.544688,33.8928676 C194.736295,33.8928676 194.86058,33.8420297 194.86058,33.7341919 C194.86058,33.6669216 194.787563,33.5796243 194.611491,33.5796243 C194.384152,33.5796243 194.031491,33.5647324 193.824866,33.528273 C193.369152,33.4615162 193.281116,33.1795973 193.22933,32.7631378 C193.15683,32.1212459 193.141295,30.9915162 193.141295,29.6358405 L193.141295,28.5061108 C193.141295,28.4393541 193.19308,28.4188135 193.244866,28.4188135 L199.06558,28.4188135 C199.101313,28.4188135 199.153616,28.4547595 199.153616,28.5061108 L199.153616,29.6358405 C199.153616,30.9915162 199.153616,32.1212459 199.080598,32.7477324 C199.02933,33.1842189 198.941295,33.4615162 198.624884,33.5334081 C198.48558,33.5693541 198.309509,33.5898946 198.065598,33.5898946 C197.890045,33.5898946 197.817545,33.6771919 197.817545,33.7490838 C197.817545,33.8569216 197.936134,33.9087865 198.148973,33.9087865 C198.744509,33.9087865 199.832009,33.8569216 200.178455,33.8569216 C200.598438,33.8569216 201.613438,33.9087865 202.612902,33.9087865 C202.804509,33.9087865 202.928795,33.8569216 202.928795,33.7490838 C202.928795,33.682327 202.840759,33.5950297 202.680223,33.5950297 C202.431652,33.5950297 202.099705,33.5796243 201.887384,33.5441919 C201.416652,33.4774351 201.328616,33.2001378 201.272688,32.7785432 C201.203295,32.1366514 201.203295,30.9709757 201.203295,29.6153 L201.203295,26.9963811 C201.203295,24.7574622 201.203295,24.3363811 201.239027,23.8690838 C201.275795,23.3504351 201.40008,23.1398946 201.800384,23.0731378 C201.991991,23.0371919 202.13233,23.0217865 202.256616,23.0217865 C202.432688,23.0217865 202.536259,22.9704351 202.536259,22.8677324 C202.536259,22.7650297 202.430616,22.7290838 202.202759,22.7290838 C201.607223,22.7290838 200.587045,22.7650297 200.219366,22.7650297 C199.81492,22.7650297 198.727938,22.7290838 197.904545,22.7290838 C197.67617,22.7290838 197.569491,22.7598946 197.569491,22.8677324 C197.569491,22.9704351 197.658045,23.0217865 197.834116,23.0217865 C198.046438,23.0217865 198.310545,23.0371919 198.430688,23.0731378 C198.92317,23.2117865 199.062991,23.3658405 199.099241,23.8690838 C199.119955,24.3363811 199.135491,24.8755703 199.135491,27.1196243 L199.135491,27.4328676 C199.135491,27.5201649 199.083705,27.5355703 199.047455,27.5355703 L193.231402,27.5355703 L193.272313,27.5057865 Z" fill="#ACACAC"></path>
        <path d="M21.7620143,31.4673378 C13.7714786,23.3471486 15.4405321,17.8571757 20.5502286,10.8210135 C22.9297821,7.54531081 25.2782643,4.27166216 24.8831393,0.000256756757 C37.0439786,12.873527 25.6702821,17.0745811 31.6427286,23.6629595 C32.4904607,20.0272838 35.0699071,16.2272838 38.67005,13.4948784 C37.6705857,23.7194459 41.0729071,24.0429595 44.0645679,30.3437703 C48.678675,40.0589324 42.2945321,50.8427162 32.7669964,55.3359595 C36.8114607,51.3978243 37.230925,45.9848784 32.4718179,40.6597432 C30.0482464,37.9489054 25.6568179,35.4070135 21.7677107,31.4575811 L21.7620143,31.4673378 Z M16.9215,11.5839919 C7.84191071,15.8887757 2.20658929,24.0521 2.51989286,31.4893162 C2.77105357,37.4527486 7.43953571,44.8458027 15.1571607,49.3981 C5.71766071,49.6836135 0.104089286,38.2779649 0.336089286,32.7499919 C-1.01033929,39.1791811 1.33969643,51.3109378 13.7827679,55.6937757 C17.882125,57.1367486 25.5448571,57.360127 28.9663393,54.9158027 C34.8823393,50.6906135 32.5007143,44.8725054 27.6313036,40.9092081 C21.9918393,36.3183973 17.0442321,33.2804514 14.2006786,27.0505054 C12.2690714,22.8217216 11.5699643,17.5474243 16.9194286,11.5834784 L16.9215,11.5839919 Z" fill="#ACACAC"></path>
    </g>
</svg>
