<?xml version="1.0" encoding="UTF-8" standalone="no"?>
<svg width="50px" height="56px" viewBox="0 0 50 56" version="1.1" xmlns="http://www.w3.org/2000/svg" xmlns:xlink="http://www.w3.org/1999/xlink">
    <!-- Generator: Sketch 39.1 (31720) - http://www.bohemiancoding.com/sketch -->
    <title>Shape</title>
    <desc>Created with Sketch.</desc>
    <defs></defs>
    <g stroke="none" stroke-width="1" fill="rgb(0,0,0)" fill-rule="evenodd">
        <g transform="translate(-375.000000, -262.000000)">
            <g transform="translate(346.000000, 238.000000)">
                <g transform="translate(29.000000, 24.000000)">
                    <path d="M44.4444444,5.55555556 L32.8333333,5.55555556 C31.6666667,2.33333333 28.6111111,0 25,0 C21.3888889,0 18.3333333,2.33333333 17.1666667,5.55555556 L5.55555556,5.55555556 C2.5,5.55555556 0,8.05555556 0,11.1111111 L0,50 C0,53.0555556 2.5,55.5555556 5.55555556,55.5555556 L44.4444444,55.5555556 C47.5,55.5555556 50,53.0555556 50,50 L50,11.1111111 C50,8.05555556 47.5,5.55555556 44.4444444,5.55555556 L44.4444444,5.55555556 Z M25,5.55555556 C26.5277778,5.55555556 27.7777778,6.80555556 27.7777778,8.33333333 C27.7777778,9.86111111 26.5277778,11.1111111 25,11.1111111 C23.4722222,11.1111111 22.2222222,9.86111111 22.2222222,8.33333333 C22.2222222,6.80555556 23.4722222,5.55555556 25,5.55555556 L25,5.55555556 Z M30.5555556,44.4444444 L11.1111111,44.4444444 L11.1111111,38.8888889 L30.5555556,38.8888889 L30.5555556,44.4444444 L30.5555556,44.4444444 Z M38.8888889,33.3333333 L11.1111111,33.3333333 L11.1111111,27.7777778 L38.8888889,27.7777778 L38.8888889,33.3333333 L38.8888889,33.3333333 Z M38.8888889,22.2222222 L11.1111111,22.2222222 L11.1111111,16.6666667 L38.8888889,16.6666667 L38.8888889,22.2222222 L38.8888889,22.2222222 Z"></path>
                </g>
            </g>
        </g>
    </g>
</svg>