<?xml version="1.0" encoding="UTF-8" standalone="no"?>
<svg width="20px" height="18px" viewBox="0 7 20 18" version="1.1" xmlns="http://www.w3.org/2000/svg" xmlns:xlink="http://www.w3.org/1999/xlink">
    <circle stroke="none" fill-rule="evenodd" cx="10.2" cy="17.2" r="3.2"></circle>
    <path d="M7,7 L5.17,9 L2,9 C0.9,9 0,9.9 0,11 L0,23 C0,24.1 0.9,25 2,25 L18,25 C19.1,25 20,24.1 20,23 L20,11 C20,9.9 19.1,9 18,9 L14.83,9 L13,7 L7,7 L7,7 Z M10,22 C7.24,22 5,19.76 5,17 C5,14.24 7.24,12 10,12 C12.76,12 15,14.24 15,17 C15,19.76 12.76,22 10,22 L10,22 Z" stroke="none" fill-rule="evenodd"></path>
</svg>
