<?xml version="1.0" encoding="UTF-8" standalone="no"?>
<svg width="40px" height="40px" viewBox="0 3 40 40" version="1.1" xmlns="http://www.w3.org/2000/svg" xmlns:xlink="http://www.w3.org/1999/xlink">
    <g stroke="none" fill-rule="evenodd" transform="translate(0.000000, 3.000000)">
        <path d="M19.98,0 C8.94,0 0,8.96 0,20 C0,31.04 8.94,40 19.98,40 C31.04,40 40,31.04 40,20 C40,8.96 31.04,0 19.98,0 L19.98,0 Z M20,36 C11.16,36 4,28.84 4,20 C4,11.16 11.16,4 20,4 C28.84,4 36,11.16 36,20 C36,28.84 28.84,36 20,36 L20,36 Z"></path>
        <polygon points="21 10 18 10 18 22 28.5 28.3 30 25.84 21 20.5"></polygon>
    </g>
</svg>
