<?xml version="1.0" encoding="UTF-8" standalone="no"?>
<svg width="40px" height="32px" viewBox="0 0 40 32" version="1.1" xmlns="http://www.w3.org/2000/svg" xmlns:xlink="http://www.w3.org/1999/xlink">
    <!-- Generator: Sketch 39.1 (31720) - http://www.bohemiancoding.com/sketch -->
    <title>Shape</title>
    <desc>Created with Sketch.</desc>
    <defs></defs>
    <g stroke="none" stroke-width="1" fill="rgb(0,0,0)" fill-rule="evenodd">
        <g transform="translate(-636.000000, -1964.000000)">
            <g transform="translate(114.000000, 1557.000000)">
                <g>
                    <g transform="translate(501.000000, 351.000000)">
                        <g transform="translate(17.000000, 48.000000)">
                            <g>
                                <path d="M22,34 L26,34 L26,32 L28,32 C29.1,32 30,31.1 30,30 L30,24 C30,22.9 29.1,22 28,22 L22,22 L22,20 L30,20 L30,16 L26,16 L26,14 L22,14 L22,16 L20,16 C18.9,16 18,16.9 18,18 L18,24 C18,25.1 18.9,26 20,26 L26,26 L26,28 L18,28 L18,32 L22,32 L22,34 L22,34 Z M40,8 L8,8 C5.79,8 4.02,9.79 4.02,12 L4,36 C4,38.21 5.79,40 8,40 L40,40 C42.21,40 44,38.21 44,36 L44,12 C44,9.79 42.21,8 40,8 L40,8 Z M40,36 L8,36 L8,12 L40,12 L40,36 L40,36 Z"></path>
                            </g>
                        </g>
                    </g>
                </g>
            </g>
        </g>
    </g>
</svg>