<?xml version="1.0" encoding="UTF-8" standalone="no"?>
<svg width="44px" height="36px" viewBox="0 0 44 36" version="1.1" xmlns="http://www.w3.org/2000/svg" xmlns:xlink="http://www.w3.org/1999/xlink">
    <!-- Generator: Sketch 39.1 (31720) - http://www.bohemiancoding.com/sketch -->
    <title>Combined Shape</title>
    <desc>Created with Sketch.</desc>
    <defs></defs>
    <g stroke="none" stroke-width="1" fill="rgb(0,0,0)" fill-rule="evenodd">
        <g transform="translate(-134.000000, -1608.000000)">
            <g transform="translate(114.000000, 1557.000000)">
                <g>
                    <g transform="translate(1.000000, 0.000000)">
                        <g transform="translate(18.000000, 51.000000)">
                            <g>
                                <path d="M8.92781316,20.36 L8.92781316,28.36 L22.8980892,36 L36.8683652,28.36 L36.8683652,20.36 L22.8980892,28 L8.92781316,20.36 Z M22.8980892,0 L0.944798301,12 L22.8980892,24 L40.8598726,14.18 L40.8598726,28 L44.85138,28 L44.85138,12 L22.8980892,0 Z M18.5778447,11.7266799 C17.7715006,11.0779333 17.9216216,10.0063662 19.1135612,8.970229 C20.3689768,7.87891286 21.4632684,7.98017088 22.4302923,8.68736042 L23.9889824,7.33241173 C22.667216,6.35161839 20.7578329,6.05498729 18.9064972,7.03282211 L17.2864114,5.72937706 L15.1705424,7.56867393 L16.7684352,8.85426356 C15.7108747,10.2936513 15.5427269,12.000013 16.9704738,13.1487111 C18.6793314,14.5235778 20.8771646,14.0370162 23.3405655,12.725241 C25.5476487,11.5496018 26.551287,11.7668111 27.2392686,12.3203289 C27.7497066,12.7310033 28.2178564,13.6861202 26.6591662,15.0410689 C25.2062695,16.3040528 23.9544009,16.253097 23.0038961,15.618225 L21.4522588,16.9670427 C23.1569793,18.1969159 25.2235656,17.9235055 26.8810255,16.9903794 L28.4863159,18.2819209 L30.6021849,16.442624 L29.0116898,15.1629862 C30.1132915,13.7472265 30.3705558,12.1243693 28.8540372,10.9042495 C26.753104,9.21393717 24.3216779,10.1264427 22.2842089,11.1670209 C20.2467399,12.2075991 19.2806216,12.2921013 18.5778447,11.7266799 Z"></path>
                            </g>
                        </g>
                    </g>
                </g>
            </g>
        </g>
    </g>
</svg>