<?xml version="1.0" encoding="UTF-8" standalone="no"?>
<svg width="38px" height="42px" viewBox="0 0 38 42" version="1.1" xmlns="http://www.w3.org/2000/svg" xmlns:xlink="http://www.w3.org/1999/xlink">
    <!-- Generator: Sketch 39.1 (31720) - http://www.bohemiancoding.com/sketch -->
    <title>Shape</title>
    <desc>Created with Sketch.</desc>
    <defs></defs>
    <g stroke="none" stroke-width="1" fill="rgb(0,0,0)" fill-rule="evenodd">
        <g transform="translate(-636.000000, -2293.000000)">
            <g transform="translate(114.000000, 1557.000000)">
                <g>
                    <g transform="translate(501.000000, 691.000000)">
                        <g transform="translate(17.000000, 43.000000)">
                            <g>
                                <path d="M8,20 L8,34 L14,34 L14,20 L8,20 L8,20 Z M20,20 L20,34 L26,34 L26,20 L20,20 L20,20 Z M4,44 L42,44 L42,38 L4,38 L4,44 L4,44 Z M32,20 L32,34 L38,34 L38,20 L32,20 L32,20 Z M23,2 L4,12 L4,16 L42,16 L42,12 L23,2 L23,2 Z"></path>
                            </g>
                        </g>
                    </g>
                </g>
            </g>
        </g>
    </g>
</svg>