<?xml version="1.0" encoding="UTF-8" standalone="no"?>
<svg width="36px" height="32px" viewBox="0 0 36 32" version="1.1" xmlns="http://www.w3.org/2000/svg" xmlns:xlink="http://www.w3.org/1999/xlink">
    <!-- Generator: Sketch 39.1 (31720) - http://www.bohemiancoding.com/sketch -->
    <title>Shape</title>
    <desc>Created with Sketch.</desc>
    <defs></defs>
    <g stroke="none" stroke-width="1" fill="rgb(0,0,0)" fill-rule="evenodd">
        <g transform="translate(-138.000000, -2641.000000)">
            <g transform="translate(114.000000, 1557.000000)">
                <g>
                    <g transform="translate(1.000000, 1031.000000)">
                        <g transform="translate(17.000000, 43.000000)">
                            <g>
                                <path d="M37.84,12.02 C37.43,10.84 36.31,10 35,10 L13,10 C11.69,10 10.57,10.84 10.16,12.02 L6,24 L6,40 C6,41.1 6.9,42 8,42 L10,42 C11.11,42 12,41.1 12,40 L12,38 L36,38 L36,40 C36,41.1 36.9,42 38,42 L40,42 C41.11,42 42,41.1 42,40 L42,24 L37.84,12.02 L37.84,12.02 Z M13,32 C11.34,32 10,30.66 10,29 C10,27.34 11.34,26 13,26 C14.66,26 16,27.34 16,29 C16,30.66 14.66,32 13,32 L13,32 Z M35,32 C33.34,32 32,30.66 32,29 C32,27.34 33.34,26 35,26 C36.66,26 38,27.34 38,29 C38,30.66 36.66,32 35,32 L35,32 Z M10,22 L13,13 L35,13 L38,22 L10,22 L10,22 Z"></path>
                            </g>
                        </g>
                    </g>
                </g>
            </g>
        </g>
    </g>
</svg>