<?xml version="1.0" encoding="UTF-8" standalone="no"?>
<svg width="62px" height="62px" viewBox="-3 -3 62 62" version="1.1" xmlns="http://www.w3.org/2000/svg" xmlns:xlink="http://www.w3.org/1999/xlink">
    <polygon stroke-width="5" fill="none" points="28 53.1999993 22.1784727 55.3881328 17.7502369 51.0213449 11.5420129 50.6524758 9.27275089 44.8620908 3.75128869 42 4.03337642 35.7872281 0.15338693 30.926797 2.9380489 25.3658828 1.37041754 19.3475242 6.1761604 15.4000003 7.19194489 9.26434302 13.187812 7.61277228 16.611374 2.42072719 22.7606255 3.35068111 28 0 33.2393745 3.35068111 39.388626 2.42072719 42.812188 7.61277228 48.8080551 9.26434302 49.8238396 15.4000003 54.6295825 19.3475242 53.0619511 25.3658828 55.8466131 30.926797 51.9666236 35.7872281 52.2487113 42 46.7272491 44.8620908 44.4579871 50.6524758 38.2497631 51.0213449 33.8215273 55.3881328"></polygon>
</svg>
