<?xml version="1.0" encoding="UTF-8" standalone="no"?>
<svg width="40px" height="32px" viewBox="0 0 40 32" version="1.1" xmlns="http://www.w3.org/2000/svg" xmlns:xlink="http://www.w3.org/1999/xlink">
    <g stroke="none" stroke-width="1" fill="none" fill-rule="evenodd">
        <g transform="translate(-481.000000, -199.000000)">
            <g transform="translate(398.000000, 138.000000)">
                <g transform="translate(18.000000, 37.000000)">
                    <g>
                        <g transform="translate(61.000000, 16.000000)">
                            <polygon id="content-area" points="0 0 48 0 48 48 0 48"></polygon>
                            <path d="M40,8 L8,8 C5.78,8 4.02,9.78 4.02,12 L4,36 C4,38.22 5.78,40 8,40 L40,40 C42.22,40 44,38.22 44,36 L44,12 C44,9.78 42.22,8 40,8 L40,8 Z M40,36 L8,36 L8,24 L40,24 L40,36 L40,36 Z M40,16 L8,16 L8,12 L40,12 L40,16 L40,16 Z" id="icon-(card)" fill="#28282A"></path>
                        </g>
                    </g>
                </g>
            </g>
        </g>
    </g>
</svg>
