<?xml version="1.0" encoding="UTF-8" standalone="no"?>
<svg width="9px" height="18px" viewBox="0 0 9 18" version="1.1" xmlns="http://www.w3.org/2000/svg" xmlns:xlink="http://www.w3.org/1999/xlink">
    <!-- Generator: Sketch 39.1 (31720) - http://www.bohemiancoding.com/sketch -->
    <title>ic_facebook</title>
    <desc>Created with Sketch.</desc>
    <defs></defs>
    <g stroke="none" stroke-width="1" fill="rgb(0,0,0)" fill-rule="evenodd">
        <g transform="translate(-449.000000, -463.000000)">
            <g transform="translate(213.000000, 245.000000)">
                <g transform="translate(177.000000, 218.000000)">
                    <g transform="translate(59.708333, 0.791667)">
                        <g>
                            <g>
                                <path d="M2.49069781,1.04900229 C3.11076589,0.329147428 4.08678979,0.0203545167 5.01366498,0.0163829037 C5.89734887,0.0228367748 6.78202567,0.0074467744 7.66471666,0.0297870976 C7.69251795,0.973045188 7.66273086,1.91977844 7.67961021,2.86402943 C7.05606697,2.85906492 6.43252373,2.86204363 5.80947693,2.86204363 C5.57465531,2.85956137 5.32940821,2.96828428 5.21025982,3.17729041 C5.09061498,3.36941719 5.09458659,3.60374236 5.09607595,3.82218107 C5.10203337,4.33849076 5.08862917,4.85480046 5.10302627,5.3706137 C5.95195855,5.37954983 6.80089083,5.37905337 7.64932666,5.37111015 C7.64088698,5.86458306 7.54904343,6.35259501 7.51032021,6.84457858 C7.48152601,7.32514375 7.39166827,7.7997515 7.37876053,8.28081313 C6.62067889,8.30464281 5.86160435,8.28478474 5.10302627,8.29123861 C5.09260079,11.0549848 5.09458659,13.8192275 5.10203337,16.5829737 C4.94167949,16.6072998 4.77884336,16.5988601 4.61700013,16.5988601 C3.78991172,16.5988601 2.96232686,16.5983637 2.13474199,16.5988601 C1.97339522,16.5983637 1.81105553,16.6092856 1.65169456,16.5790021 C1.66658811,14.3127004 1.65417682,12.0463987 1.65814843,9.78009704 C1.65368037,9.28364542 1.66708456,8.78719379 1.65119811,8.29123861 C1.11304455,8.29123861 0.574890984,8.29223152 0.0362409687,8.29074216 C0.0203545167,7.43039149 0.0357445171,6.56954437 0.0287941943,5.70919371 C0.0282977427,5.59600273 0.0278012911,5.48231531 0.0421983883,5.36962079 C0.578862597,5.37557821 1.1155268,5.37706757 1.65169456,5.36862789 C1.66658811,4.78728303 1.65417682,4.20544173 1.65814843,3.62409687 C1.6338223,2.70864007 1.87956586,1.74999198 2.49069781,1.04900229 L2.49069781,1.04900229 Z"></path>
                            </g>
                        </g>
                    </g>
                </g>
            </g>
        </g>
    </g>
</svg>