<?xml version="1.0" encoding="UTF-8" standalone="no"?>
<svg width="46px" height="56px" viewBox="0 0 46 56" version="1.1" xmlns="http://www.w3.org/2000/svg" xmlns:xlink="http://www.w3.org/1999/xlink">
    <g stroke="none" fill-rule="evenodd">
        <path d="M8.85661293,6.88333333 C9.33107433,6.53333333 9.80553574,6.3 10.3327151,6.00833333 C10.5963048,5.89166667 10.8071765,5.775 11.0707662,5.6 C11.1234841,5.54166667 11.5452276,5.36666667 11.3870738,5.425 C11.22892,5.54166667 11.4925096,5.36666667 11.4925096,5.36666667 C11.5979455,5.30833333 11.7033814,5.25 11.8615352,5.19166667 C12.5468683,4.9 13.2849194,4.60833333 14.0229705,4.375 C18.1876873,2.975 22.6159937,2.56666667 26.9915823,3.26666667 C30.36553,3.85 33.6867599,5.075 36.6916821,6.76666667 C37.2715794,7.11666667 38.0096305,6.94166667 38.3259381,6.3 C38.6422457,5.71666667 38.4840919,4.78333333 37.9041946,4.49166667 C32.6324012,1.575 26.7279926,2.33479902e-13 20.770866,0.408333333 C16.9224568,0.7 13.1794835,1.69166667 9.70009987,3.44166667 C9.01476673,3.79166667 8.32943359,4.14166667 7.69681838,4.60833333 C7.16963904,5.01666667 6.90604937,5.775 7.2750749,6.41666667 C7.53866457,7 8.32943359,7.29166667 8.85661293,6.88333333 L8.85661293,6.88333333 L8.85661293,6.88333333 Z"></path>
        <path d="M6.16799829,45.4416667 C5.58810101,43.8666667 5.27179341,42.2333333 5.00820374,40.5416667 C4.9554858,40.1916667 4.90276787,39.7833333 4.85004994,39.4333333 C4.85004994,39.375 4.797332,39.025 4.85004994,39.4333333 C4.85004994,39.3166667 4.85004994,39.2583333 4.797332,39.1416667 C4.797332,38.9083333 4.74461407,38.675 4.74461407,38.4416667 C4.6391782,37.5666667 4.6391782,36.6916667 4.6391782,35.7583333 C4.6391782,34.825 4.69189613,33.8333333 4.797332,32.9 C4.797332,32.7833333 4.797332,32.6666667 4.85004994,32.55 C4.797332,32.8416667 4.85004994,32.4916667 4.85004994,32.4333333 C4.90276787,32.2 4.90276787,31.9666667 4.9554858,31.7333333 C5.06092167,31.2083333 5.11363961,30.6833333 5.27179341,30.2166667 C5.79897275,28.1166667 6.43158796,26.425 7.59138251,24.6166667 C8.11856185,23.8 8.75117706,22.9833333 9.48922814,22.225 C10.3327151,21.35 11.176202,20.5916667 12.1778428,19.8916667 C14.6555857,18.1416667 17.5023541,16.9166667 20.4545584,16.625 C23.6703524,16.275 26.8861464,16.8 29.8910686,18.0833333 C32.2633757,19.075 34.424811,20.5916667 36.1645028,22.6333333 C37.1134256,23.6833333 37.8514767,24.9083333 38.5368098,26.1916667 C38.9058354,26.8916667 39.2748609,27.65 39.5911685,28.4083333 C39.7493223,28.8166667 39.960194,29.225 40.1183478,29.6333333 C40.012912,29.4 40.0656299,29.575 40.1183478,29.6333333 C40.2765016,30.0416667 40.3819375,30.45 40.4873734,30.8583333 C40.5928092,31.2083333 40.6455272,31.5583333 40.6982451,31.9083333 C40.750963,32.0833333 40.750963,32.3166667 40.803681,32.55 C40.803681,32.6666667 40.8563989,32.7833333 40.8563989,32.9 C40.803681,32.55 40.8563989,33.075 40.8563989,33.1333333 C40.9091168,33.6 40.9091168,34.0666667 40.9091168,34.5916667 L40.9091168,35.35 L40.9091168,35.7583333 L40.9091168,35.9916667 C40.9091168,35.875 40.9091168,35.875 40.9091168,35.9916667 C40.750963,37.1583333 40.5400913,37.8 39.9074761,38.7333333 C40.012912,38.5583333 39.8020402,38.9083333 39.8020402,38.9083333 C39.6966044,39.025 39.6438864,39.0833333 39.5384506,39.2 C39.3802968,39.375 39.222143,39.55 39.1167071,39.6083333 C38.5895278,40.075 37.9569125,40.3666667 37.3242973,40.5416667 C35.953631,41.0083333 34.372093,40.8916667 33.0541447,40.1333333 C32.0525039,39.55 31.3144528,38.7333333 30.7872735,37.625 C30.6818376,37.3916667 30.6291197,37.275 30.5236838,36.925 C30.4709659,36.75 30.418248,36.5166667 30.418248,36.3416667 C30.36553,36.1083333 30.2073762,35.6416667 30.418248,36.1666667 C30.3128121,35.875 30.418248,35.4666667 30.36553,35.175 C30.36553,34.7083333 30.2600942,34.2416667 30.2073762,33.7166667 C29.0475817,27.3 20.770866,25.3166667 17.0278927,30.1 C14.1811243,33.7166667 14.9718933,39.025 16.5007134,43.1083333 C18.2404052,47.8333333 21.561635,51.5666667 25.6736339,53.8416667 C26.9915823,54.6 28.4149665,55.1833333 29.8383507,55.7083333 C31.3144528,56.2333333 31.9470681,53.6666667 30.4709659,53.1416667 C27.9405051,52.2083333 25.3573263,50.8666667 23.3540448,49 C21.6670709,47.4833333 20.5072764,45.85 19.4529177,43.8083333 C19.2420459,43.3416667 19.0311742,42.875 18.8203025,42.4083333 C18.7148666,42.175 18.8730204,42.525 18.7675845,42.2916667 C18.7148666,42.175 18.6621487,42.0583333 18.6621487,42 C18.5567128,41.7666667 18.5039949,41.5333333 18.4512769,41.3 C18.1876873,40.4833333 17.9768155,39.6083333 17.8186617,38.7333333 C17.7659438,38.325 17.7132259,37.975 17.6605079,37.625 C17.6605079,37.5083333 17.6605079,37.45 17.60779,37.3916667 C17.5550721,37.1 17.60779,37.5083333 17.60779,37.3916667 C17.60779,37.2166667 17.5550721,37.0416667 17.5550721,36.8666667 C17.3969182,35.4083333 17.60779,33.95 18.2931231,32.6666667 C19.7692253,29.9833333 22.6687117,29.5166667 25.0937366,30.625 C25.9899415,31.0333333 26.8334284,31.7333333 27.3606078,32.6666667 C27.993223,33.775 27.9405051,35 28.0986589,36.3416667 C28.1513768,36.6916667 28.0986589,36.4583333 28.0986589,36.4 C28.0986589,36.575 28.1513768,36.6916667 28.1513768,36.8666667 C28.2040947,37.0416667 28.2040947,37.275 28.2568127,37.45 C28.3622485,37.8583333 28.5204023,38.325 28.6785561,38.675 C28.8367099,39.0833333 29.1002996,39.55 29.3638893,39.9 C30.36553,41.3583333 31.7361963,42.4083333 33.3704523,42.9333333 C36.2172207,43.8666667 39.6966044,43.05 41.6471679,40.4833333 C44.019475,37.3333333 43.7558853,32.725 42.6488087,28.9916667 C41.9107576,26.5416667 40.6455272,24.2083333 39.222143,22.225 C37.6406049,19.95 35.6373234,18.025 33.3177343,16.6833333 C27.3078899,13.1833333 20.0855329,12.7166667 13.9175346,15.8666667 C9.64738194,18.025 5.95712655,21.7 4.11199886,26.5416667 C2.68861464,30.275 2.26687117,34.4166667 2.6358967,38.5 C2.84676844,40.95 3.26851191,43.4 4.00656299,45.7333333 C4.05928092,45.85 4.11199886,45.9666667 4.11199886,46.0833333 C4.37558853,46.7833333 4.90276787,47.25 5.58810101,47.0166667 C5.90440862,46.9583333 6.43158796,46.1416667 6.16799829,45.4416667 L6.16799829,45.4416667 L6.16799829,45.4416667 Z"></path>
        <path d="M2.37230703,21.0583333 C2.42502497,20.9416667 2.4777429,20.8833333 2.58317877,20.7666667 C2.68861464,20.65 2.74133257,20.5333333 2.79405051,20.4166667 C2.84676844,20.3 3.05764018,20.0666667 2.79405051,20.4166667 C2.84676844,20.3 2.95220431,20.2416667 3.00492224,20.125 C3.69025539,19.1916667 4.4810244,18.2583333 5.27179341,17.3833333 C6.48430589,16.1 7.53866457,15.1666667 8.90933086,14.175 C10.5435868,13.0083333 12.2832786,12.0166667 14.0756884,11.3166667 C16.1844058,10.5 18.398559,9.975 20.6654302,9.8 C21.6670709,9.74166667 22.6687117,9.74166667 23.6176345,9.8 C24.0920959,9.8 24.6192752,9.85833333 25.0937366,9.85833333 C25.3573263,9.85833333 25.6736339,9.91666667 25.9372236,9.975 C26.0953774,9.975 26.2535312,10.0333333 26.411685,10.0333333 C26.7279926,10.0916667 26.1480953,9.975 26.4644029,10.0333333 C26.5698388,10.0333333 26.6752746,10.0333333 26.7279926,10.0916667 C28.3095306,10.3833333 29.8910686,10.7916667 31.4198887,11.375 C35.953631,13.125 40.012912,16.6833333 42.9123983,21.0583333 C43.2814239,21.6416667 43.966757,21.9333333 44.5466543,21.525 C45.0738336,21.175 45.3374233,20.3 44.9683978,19.7166667 C42.1216293,15.3416667 38.378656,11.7833333 33.8976316,9.625 C30.8927094,8.16666667 27.6769154,7.35 24.4084035,7.175 C21.2980454,7 18.0822514,7.23333333 15.0773291,8.16666667 C11.176202,9.39166667 7.59138251,11.6666667 4.53374233,14.5833333 C3.00492224,16.1 1.47610215,17.7916667 0.369025539,19.7166667 C-0.527179341,21.175 1.52882009,22.5166667 2.37230703,21.0583333 L2.37230703,21.0583333 L2.37230703,21.0583333 Z"></path>
        <path d="M21.3507633,35.35 C21.2980454,37.8583333 22.0888144,40.3666667 23.195891,42.525 C24.777429,45.675 27.3078899,48.125 30.418248,49.175 C32.8432729,49.9916667 35.2682979,49.875 37.7987587,49.5833333 C38.4313739,49.525 39.0112712,49 39.0112712,48.2416667 C39.0112712,47.5416667 38.4840919,46.8416667 37.7987587,46.9 C35.7427593,47.1333333 33.6867599,47.3083333 31.7889143,46.7833333 C30.9454273,46.55 30.36553,46.3166667 29.7329148,45.9666667 C29.4166072,45.7916667 29.1002996,45.5583333 28.783992,45.3833333 C28.6258382,45.2666667 28.5204023,45.15 28.3622485,45.0916667 C28.2568127,45.0333333 28.2040947,44.975 28.1513768,44.9166667 C28.0986589,44.8583333 28.0986589,44.8583333 28.1513768,44.9166667 C28.0986589,44.8583333 28.0459409,44.8583333 28.0459409,44.8 C27.5187616,44.3333333 26.9915823,43.75 26.5698388,43.1666667 C26.4644029,43.05 26.358967,42.875 26.2535312,42.7583333 C26.411685,42.9333333 26.0953774,42.525 26.0953774,42.4666667 C25.8845056,42.175 25.7263518,41.825 25.5154801,41.5333333 C25.1991725,40.95 24.9355828,40.3666667 24.6719932,39.725 C24.6719932,39.6666667 24.6192752,39.6083333 24.6192752,39.55 C24.7247111,39.8416667 24.6719932,39.6666667 24.6192752,39.6083333 C24.5665573,39.4333333 24.5138393,39.3166667 24.4611214,39.1416667 C24.3556855,38.85 24.3029676,38.5583333 24.1975317,38.2666667 C24.0393779,37.7416667 23.9339421,37.2166667 23.8285062,36.6916667 C23.8285062,36.6333333 23.7757883,36.225 23.7757883,36.5166667 C23.8285062,36.8083333 23.7757883,36.4 23.7757883,36.3416667 L23.7757883,35.2916667 C23.7757883,33.6583333 21.4034812,33.6583333 21.3507633,35.35 L21.3507633,35.35 L21.3507633,35.35 Z"></path>
        <path d="M36.7444001,35.4666667 C36.8498359,32.0833333 35.6373234,28.7583333 33.7394778,26.1333333 C30.7345556,21.9333333 25.4627622,19.95 20.7181481,20.65 C16.1316878,21.2916667 11.5979455,24.7333333 9.70009987,29.4583333 C8.48758739,32.55 8.27671565,35.9333333 8.69845912,39.2 C9.48922814,45.15 12.2832786,50.575 16.1844058,54.7166667 C17.2914824,55.8833333 18.9784563,54.0166667 17.8713797,52.85 C14.6028677,49.35 12.1778428,44.975 11.22892,40.0166667 C11.1234841,39.6083333 11.0707662,39.2 11.0180482,38.85 C11.0180482,38.7916667 11.0180482,38.675 10.9653303,38.6166667 C10.9126124,38.2666667 11.0180482,38.9083333 10.9653303,38.5583333 C10.9653303,38.3833333 10.9126124,38.15 10.9126124,37.975 C10.8598944,37.45 10.8071765,36.8666667 10.8071765,36.3416667 C10.8071765,35.175 10.9126124,34.0666667 11.1234841,32.9583333 C11.5452276,30.8 12.4941504,28.8166667 13.8648167,27.3 C14.5501498,26.5416667 15.0773291,26.1333333 15.7626623,25.55 C16.7115851,24.85 17.6605079,24.2666667 18.7675845,23.8583333 C21.2980454,22.925 23.9339421,23.0416667 26.411685,23.9166667 C28.2568127,24.5583333 29.8383507,25.6083333 31.1035811,27.0666667 C31.7889143,27.825 32.1579398,28.35 32.6851191,29.3416667 C32.8959909,29.6916667 33.0541447,30.1 33.2122985,30.5083333 C33.2650164,30.625 33.3177343,30.6833333 33.3177343,30.8 C33.4231702,31.0916667 33.2650164,30.625 33.3704523,30.9166667 C33.4231702,31.0916667 33.5286061,31.325 33.581324,31.5 C33.7921957,32.2 34.0030675,32.9 34.1085034,33.6583333 C34.1085034,33.8333333 34.1612213,33.95 34.1612213,34.125 C34.1085034,33.6583333 34.1612213,34.125 34.1612213,34.2416667 C34.2139392,34.7083333 34.2139392,35.175 34.2139392,35.5833333 C34.3193751,37.2166667 36.7444001,37.2166667 36.7444001,35.4666667 L36.7444001,35.4666667 L36.7444001,35.4666667 Z"></path>
    </g>
</svg>
