<?xml version="1.0" encoding="UTF-8" standalone="no"?>
<svg width="18px" height="10px" viewBox="0 4 18 10" version="1.1" xmlns="http://www.w3.org/2000/svg" xmlns:xlink="http://www.w3.org/1999/xlink">
    <path d="M9.4875,7.5 C8.8725,5.7525 7.2075,4.5 5.25,4.5 C2.7675,4.5 0.75,6.5175 0.75,9 C0.75,11.4825 2.7675,13.5 5.25,13.5 C7.2075,13.5 8.8725,12.2475 9.4875,10.5 L12.75,10.5 L12.75,13.5 L15.75,13.5 L15.75,10.5 L17.25,10.5 L17.25,7.5 L9.4875,7.5 L9.4875,7.5 Z M5.25,10.5 C4.425,10.5 3.75,9.825 3.75,9 C3.75,8.175 4.425,7.5 5.25,7.5 C6.075,7.5 6.75,8.175 6.75,9 C6.75,9.825 6.075,10.5 5.25,10.5 L5.25,10.5 Z" stroke="none" fill-rule="evenodd"></path>
</svg>
