<?xml version="1.0" encoding="UTF-8" standalone="no"?>
<svg width="64px" height="31px" viewBox="0 0 64 31" version="1.1" xmlns="http://www.w3.org/2000/svg" xmlns:xlink="http://www.w3.org/1999/xlink">
    <!-- Generator: Sketch 39.1 (31720) - http://www.bohemiancoding.com/sketch -->
    <title>logo</title>
    <desc>Created with Sketch.</desc>
    <defs></defs>
    <g stroke="none" stroke-width="1" fill="none" fill-rule="evenodd">
        <g transform="translate(-131.000000, -118.000000)">
            <g transform="translate(130.000000, 3.000000)">
                <g transform="translate(1.000000, 115.000000)">
                    <path d="M0,13.4271527 L14.3898241,13.4271527 L14.3898241,13.4858043 L14.5084725,13.4858043 L14.5084725,9.01294606 L0,9.01294606 L0,13.4271527 Z M5.00287518,30.6134213 L9.50559736,30.6134213 L9.50559736,15.6865851 L5.00287518,15.6865851 L5.00287518,30.6134213 Z M32.0310462,12.1615693 C31.060066,11.1809035 29.9220094,10.4063255 28.6176836,9.83702816 C27.7387165,9.45390935 26.8140119,9.21069348 25.850834,9.08558797 L25.850834,13.5963815 C26.1979009,13.6781709 26.5377036,13.7844433 26.8664755,13.9278438 C27.631637,14.2614585 28.3034401,14.7174883 28.882423,15.2956641 C29.4605988,15.874916 29.9168976,16.5467192 30.2507813,17.3116116 C30.584127,18.076773 30.7512034,18.9008551 30.7512034,19.7838579 C30.7512034,20.6665916 30.584127,21.4906737 30.2507813,22.2555661 C29.9168976,23.0207275 29.4605988,23.6930687 28.882423,24.2717826 C28.3034401,24.8502274 27.631637,25.3065262 26.8664755,25.6401409 C26.5377036,25.7835415 26.1979009,25.8898139 25.850834,25.9716033 L25.850834,30.4818587 C26.8140119,30.3567532 27.7387165,30.1140754 28.6176836,29.7306875 C29.9220094,29.1621974 31.060066,28.3870813 32.0310462,27.4058774 C33.0025645,26.4252116 33.7722997,25.2823123 34.341328,23.9771793 C34.9100872,22.6725844 35.1947359,21.2749003 35.1947359,19.7838579 C35.1947359,18.2930845 34.9100872,16.8954003 34.341328,15.5902674 C33.7722997,14.2856725 33.0025645,13.1427731 32.0310462,12.1615693 L32.0310462,12.1615693 Z M53.3124351,10.3958328 C52.5276334,9.94464581 51.6836421,9.59677178 50.7815372,9.35113451 C50.1651571,9.18405811 49.5342487,9.07805474 48.8909642,9.02505305 L48.8909642,13.4925304 C49.2350716,13.5414965 49.5713768,13.6160217 49.8985344,13.721487 C50.5065741,13.9178892 51.0656478,14.1925832 51.5760244,14.5455691 C52.085863,14.898555 52.5324762,15.3204161 52.9150569,15.8108835 C53.2976377,16.301889 53.6067693,16.8407844 53.8419139,17.4291838 L57.1379733,14.1333935 C56.6671461,13.3685011 56.1080724,12.6673722 55.4604832,12.0291996 C54.8134322,11.3921031 54.0966987,10.8475578 53.3124351,10.3958328 L53.3124351,10.3958328 Z M23.2413752,9.01294606 L18.738653,9.01294606 L18.738653,30.6134213 L23.2965293,30.6134213 L23.2965293,26.0813733 L23.2413752,26.0813733 L23.2413752,9.01294606 Z M52.9150569,23.7713606 C52.5324762,24.2524114 52.085863,24.6688917 51.5760244,25.0218776 C51.0656478,25.3754015 50.5065741,25.6500956 49.8985344,25.8459597 C49.5713768,25.951694 49.2350716,26.0264883 48.8909642,26.0751853 L48.8909642,30.5426627 C49.5342487,30.4893919 50.1651571,30.3836576 50.7815372,30.2163122 C51.6836421,29.971213 52.5276334,29.623339 53.3124351,29.1713448 C54.0966987,28.7201579 54.8134322,28.1807244 55.4604832,27.5530445 C56.1080724,26.9253646 56.6671461,26.2288094 57.1379733,25.463648 L53.8419139,22.1673196 C53.6067693,22.7559881 53.2976377,23.2908478 52.9150569,23.7713606 L52.9150569,23.7713606 Z M40.3784087,12.1615693 C39.4074285,13.1427731 38.6371552,14.2856725 38.068396,15.5902674 C37.4988296,16.8954003 37.214719,18.2930845 37.214719,19.7838579 C37.214719,21.2749003 37.4988296,22.6725844 38.068396,23.9771793 C38.6371552,25.2823123 39.4074285,26.4252116 40.3784087,27.4058774 C41.3496579,28.3870813 42.4871764,29.1621974 43.7923094,29.7306875 C44.693069,30.12403 45.6417185,30.3712816 46.6315318,30.4928895 L46.6315318,25.9917816 C46.2548701,25.908916 45.8862796,25.7943032 45.528451,25.6401409 C44.7530659,25.3065262 44.0812627,24.8502274 43.5125035,24.2717826 C42.9434752,23.6930687 42.4922882,23.0207275 42.1586735,22.2555661 C41.8250588,21.4906737 41.6585205,20.6665916 41.6585205,19.7838579 C41.6585205,18.9008551 41.8250588,18.076773 42.1586735,17.3116116 C42.4922882,16.5467192 42.9434752,15.874916 43.5125035,15.2956641 C44.0812627,14.7174883 44.7530659,14.2614585 45.528451,13.9278438 C45.8862796,13.7736815 46.2548701,13.6590688 46.6315318,13.5762032 L46.6315318,9.07482621 C45.6417185,9.19643414 44.693069,9.44395472 43.7923094,9.83702816 C42.4871764,10.4063255 41.3496579,11.1809035 40.3784087,12.1615693 L40.3784087,12.1615693 Z" fill="#F5F3E6"></path>
                    <polygon fill="#F04F37" points="57.3063949 6.64858645 63.2824026 6.64858645 63.2824026 0.672578735 57.3063949 0.672578735"></polygon>
                </g>
            </g>
        </g>
    </g>
</svg>