<?xml version="1.0" encoding="UTF-8" standalone="no"?>
<svg width="191px" height="20px" viewBox="0 1 191 20" version="1.1" xmlns="http://www.w3.org/2000/svg" xmlns:xlink="http://www.w3.org/1999/xlink">
    <g stroke="none" stroke-width="1" fill="none" fill-rule="evenodd" transform="translate(0.000000, 1.000000)">
        <polygon fill="#F04F37" points="156.67154 3.07583333 159.868732 3.07583333 159.868732 0 156.67154 0"></polygon>
        <path d="M118.98737,7.89333333 L124.749853,7.89333333 L124.749853,4.80666667 L118.98737,4.80666667 L118.98737,7.89333333 Z M118.98737,19.6925 L124.749853,19.6925 L124.749853,16.5854167 L118.98737,16.5854167 L118.98737,19.6925 Z M129.361571,6.97958333 C128.665136,7.65666667 128.112925,8.44541667 127.704506,9.34541667 C127.296086,10.24625 127.092526,11.2108333 127.092526,12.2395833 C127.092526,13.2683333 127.296086,14.2329167 127.704506,15.1329167 C128.112925,16.03375 128.665136,16.8225 129.361571,17.4991667 C130.058007,18.17625 130.874413,18.7108333 131.810356,19.1033333 C132.465646,19.37875 133.155585,19.55125 133.876707,19.63375 L133.876707,16.5308333 C133.595621,16.4733333 133.321898,16.3908333 133.055537,16.2808333 C132.499862,16.0504167 132.017814,15.7358333 131.609395,15.33625 C131.200975,14.9370833 130.877444,14.4729167 130.63837,13.945 C130.399295,13.4170833 130.279757,12.8483333 130.279757,12.2395833 C130.279757,11.63 130.399295,11.06125 130.63837,10.5333333 C130.877444,10.0054167 131.200975,9.54208333 131.609395,9.1425 C132.017814,8.74333333 132.499862,8.42875 133.055537,8.19833333 C133.321898,8.08791667 133.595621,8.00583333 133.876707,7.94833333 L133.876707,4.845 C133.155585,4.9275 132.465646,5.10041667 131.810356,5.37541667 C130.874413,5.76833333 130.058007,6.30291667 129.361571,6.97958333 L129.361571,6.97958333 Z M100.51624,19.7125 L103.691778,19.7125 L103.691778,4.80708333 L100.51624,4.80708333 L100.51624,19.7125 Z M138.35373,14.99125 C138.079574,15.3229167 137.759508,15.6104167 137.393533,15.8541667 C137.027558,16.0979167 136.626501,16.2875 136.190363,16.4225 C135.965147,16.4925 135.733868,16.54375 135.496959,16.5775 L135.496959,19.6608333 C135.948256,19.6233333 136.390891,19.5516667 136.823565,19.4383333 C137.470626,19.2695833 138.076109,19.0291667 138.639147,18.7175 C139.201753,18.40625 139.715417,18.03375 140.180141,17.6008333 C140.644431,17.1675 141.045488,16.6866667 141.382878,16.15875 L139.018982,13.8841667 C138.85007,14.2904167 138.62832,14.6595833 138.35373,14.99125 L138.35373,14.99125 Z M114.300723,19.6925 L117.367118,19.6925 L117.367118,4.80708333 L114.300723,4.80708333 L114.300723,19.6925 Z M105.312463,19.7125 L111.028603,19.7125 L111.028603,16.5854167 L105.312463,16.5854167 L105.312463,19.7125 Z M147.145794,19.7125 L150.375036,19.7125 L150.375036,9.41208333 L147.145794,9.41208333 L147.145794,19.7125 Z M184.925247,19.6925 L190.587683,19.6925 L190.587683,16.5854167 L184.925247,16.5854167 L184.925247,19.6925 Z M184.925247,7.89333333 L190.587683,7.89333333 L190.587683,4.80666667 L184.925247,4.80666667 L184.925247,7.89333333 Z M180.138553,19.6925 L183.304562,19.6925 L183.304562,4.80708333 L180.138553,4.80708333 L180.138553,19.6925 Z M170.739274,13.1429167 L172.485993,17.8475 L177.331156,4.80708333 L173.826891,4.80708333 L170.739274,13.1429167 Z M92.2131542,19.7125 L97.8357438,19.7125 L97.8357438,16.5854167 L92.2131542,16.5854167 L92.2131542,19.7125 Z M156.665476,19.7125 L159.87393,19.7125 L159.87393,4.82708333 L156.665476,4.82708333 L156.665476,19.7125 Z M162.470404,4.80708333 L168.000741,19.6925 L171.449569,19.6925 L165.923562,4.80708333 L162.470404,4.80708333 Z M138.639147,5.76125 C138.076109,5.44958333 137.470626,5.20958333 136.823565,5.04041667 C136.390891,4.9275 135.948256,4.85541667 135.496959,4.81791667 L135.496959,7.90125 C135.733868,7.935 135.965147,7.98625 136.190363,8.05583333 C136.626501,8.19166667 137.027558,8.38125 137.393533,8.62458333 C137.759508,8.86833333 138.079574,9.15958333 138.35373,9.49791667 C138.62832,9.83666667 138.85007,10.2083333 139.018982,10.6145833 L141.382878,8.34041667 C141.045488,7.8125 140.644431,7.32875 140.180141,6.88833333 C139.715417,6.44875 139.201753,6.07291667 138.639147,5.76125 L138.639147,5.76125 Z M184.925247,14.0266667 L190.313093,14.0266667 L190.313093,10.9195833 L184.925247,10.9195833 L184.925247,14.0266667 Z M16.633458,4.82708333 L13.4037823,4.82708333 L13.4037823,19.7329167 L16.633458,19.7329167 L16.633458,14.27 L18.4503401,14.27 L18.4503401,11.1629167 L16.633458,11.1629167 L16.633458,4.82708333 Z M0,7.87333333 L10.4066848,7.87333333 L10.4066848,4.80708333 L0,4.80708333 L0,7.87333333 Z M22.0165397,11.1629167 L20.0710249,11.1629167 L20.0710249,14.27 L22.0165397,14.27 L22.0165397,19.7329167 L25.2670045,19.7329167 L25.2670045,4.82708333 L22.0165397,4.82708333 L22.0165397,11.1629167 Z M118.98737,14.0266667 L124.475263,14.0266667 L124.475263,10.9195833 L118.98737,10.9195833 L118.98737,14.0266667 Z M143.557506,7.85291667 L153.963757,7.85291667 L153.963757,4.80708333 L143.557506,4.80708333 L143.557506,7.85291667 Z M28.9397483,19.6925 L32.2252948,19.6925 L32.2252948,4.80708333 L28.9397483,4.80708333 L28.9397483,19.6925 Z M3.58872109,19.7125 L6.81839683,19.7125 L6.81839683,9.41208333 L3.58872109,9.41208333 L3.58872109,19.7125 Z M83.0066077,6.97958333 C82.3101723,6.30291667 81.4937664,5.76833333 80.5578231,5.37541667 C79.9276531,5.11083333 79.2641338,4.94333333 78.5733288,4.85708333 L78.5733288,7.96958333 C78.8223651,8.02625 79.0662041,8.09916667 79.3018141,8.19833333 C79.8509932,8.42875 80.3326077,8.74333333 80.7479569,9.1425 C81.162873,9.54208333 81.4898685,10.0054167 81.7293764,10.5333333 C81.9688844,11.06125 82.0884218,11.63 82.0884218,12.2395833 C82.0884218,12.8483333 81.9688844,13.4170833 81.7293764,13.945 C81.4898685,14.4729167 81.162873,14.9370833 80.7479569,15.33625 C80.3326077,15.7358333 79.8509932,16.0504167 79.3018141,16.2808333 C79.0662041,16.3795833 78.8223651,16.4529167 78.5733288,16.5091667 L78.5733288,19.6216667 C79.2641338,19.5354167 79.9276531,19.3679167 80.5578231,19.1033333 C81.4937664,18.7108333 82.3101723,18.17625 83.0066077,17.4991667 C83.7030431,16.8225 84.255254,16.03375 84.6636735,15.1329167 C85.0716599,14.2329167 85.2756531,13.2683333 85.2756531,12.2395833 C85.2756531,11.2108333 85.0716599,10.24625 84.6636735,9.34541667 C84.255254,8.44541667 83.7030431,7.65666667 83.0066077,6.97958333 L83.0066077,6.97958333 Z M65.2011633,5.76125 C64.6381247,5.44958333 64.0326417,5.20958333 63.3855805,5.04041667 C62.9438118,4.925 62.4912154,4.85166667 62.0295238,4.815 L62.0295238,7.89791667 C62.2763946,7.93166667 62.5176349,7.98333333 62.7523787,8.05583333 C63.188517,8.19166667 63.5895737,8.38125 63.9555488,8.62458333 C64.3215238,8.86833333 64.6415896,9.15958333 64.9161791,9.49791667 C65.1903356,9.83666667 65.4120862,10.2083333 65.5809977,10.6145833 L67.9453265,8.34041667 C67.6075034,7.8125 67.2064467,7.32875 66.7421565,6.88833333 C66.2778662,6.44875 65.7637687,6.07291667 65.2011633,5.76125 L65.2011633,5.76125 Z M72.0931882,6.97958333 C71.3967528,7.65666667 70.8441088,8.44541667 70.4361224,9.34541667 C70.0281361,10.24625 69.8241429,11.2108333 69.8241429,12.2395833 C69.8241429,13.2683333 70.0281361,14.2329167 70.4361224,15.1329167 C70.8441088,16.03375 71.3967528,16.8225 72.0931882,17.4991667 C72.7896236,18.17625 73.6060295,18.7108333 74.5419728,19.1033333 C75.3007755,19.4220833 76.1059206,19.6045833 76.952644,19.6645833 L76.952644,16.5858333 C76.542059,16.5354167 76.1487982,16.4366667 75.7767596,16.2808333 C75.2280136,16.0504167 74.7494308,15.7358333 74.3414444,15.33625 C73.9330249,14.9370833 73.6094943,14.4729167 73.3704195,13.945 C73.1309116,13.4170833 73.0113741,12.8483333 73.0113741,12.2395833 C73.0113741,11.63 73.1309116,11.06125 73.3704195,10.5333333 C73.6094943,10.0054167 73.9330249,9.54208333 74.3414444,9.1425 C74.7494308,8.74333333 75.2280136,8.42875 75.7767596,8.19833333 C76.1487982,8.04208333 76.542059,7.94333333 76.952644,7.89333333 L76.952644,4.81416667 C76.1059206,4.87416667 75.3007755,5.05708333 74.5419728,5.37541667 C73.6060295,5.76833333 72.7896236,6.30291667 72.0931882,6.97958333 L72.0931882,6.97958333 Z M33.5640272,14.0266667 L39.114288,14.0266667 L39.114288,10.9195833 L33.5640272,10.9195833 L33.5640272,14.0266667 Z M87.3229478,19.7125 L90.5725465,19.7125 L90.5725465,4.80708333 L87.3229478,4.80708333 L87.3229478,19.7125 Z M64.9161791,14.99125 C64.6415896,15.3229167 64.3215238,15.6104167 63.9555488,15.8541667 C63.5895737,16.0979167 63.188517,16.2875 62.7523787,16.4225 C62.5176349,16.4954167 62.2763946,16.5470833 62.0295238,16.5808333 L62.0295238,19.66375 C62.4912154,19.6270833 62.9438118,19.5541667 63.3855805,19.4383333 C64.0326417,19.2695833 64.6381247,19.0291667 65.2011633,18.7175 C65.7637687,18.40625 66.2778662,18.03375 66.7421565,17.6008333 C67.2064467,17.1675 67.6075034,16.6866667 67.9453265,16.15875 L65.5809977,13.8841667 C65.4120862,14.2904167 65.1903356,14.6595833 64.9161791,14.99125 L64.9161791,14.99125 Z M33.5644603,19.6925 L39.3888776,19.6925 L39.3888776,16.5854167 L33.5644603,16.5854167 L33.5644603,19.6925 Z M55.9235873,6.97958333 C55.2271519,7.65666667 54.6745079,8.44541667 54.2669546,9.34541667 C53.858102,10.24625 53.654542,11.2108333 53.654542,12.2395833 C53.654542,13.2683333 53.858102,14.2329167 54.2669546,15.1329167 C54.6745079,16.03375 55.2271519,16.8225 55.9235873,17.4991667 C56.6204558,18.17625 57.4364286,18.7108333 58.3723719,19.1033333 C59.0185669,19.3745833 59.6989773,19.5454167 60.4092721,19.6291667 L60.4092721,16.5233333 C60.1390136,16.46625 59.8743855,16.3870833 59.6179864,16.2808333 C59.0618776,16.0504167 58.5798299,15.7358333 58.1718435,15.33625 C57.763424,14.9370833 57.4398934,14.4729167 57.2008186,13.945 C56.9613107,13.4170833 56.8417732,12.8483333 56.8417732,12.2395833 C56.8417732,11.63 56.9613107,11.06125 57.2008186,10.5333333 C57.4398934,10.0054167 57.763424,9.54208333 58.1718435,9.1425 C58.5798299,8.74333333 59.0618776,8.42875 59.6179864,8.19833333 C59.8743855,8.09208333 60.1390136,8.01291667 60.4092721,7.95583333 L60.4092721,4.84958333 C59.6989773,4.93333333 59.0185669,5.10416667 58.3723719,5.37541667 C57.4364286,5.76833333 56.6204558,6.30291667 55.9235873,6.97958333 L55.9235873,6.97958333 Z M33.5644603,7.89333333 L39.3888776,7.89333333 L39.3888776,4.80666667 L33.5644603,4.80666667 L33.5644603,7.89333333 Z" fill="#FFFFFF"></path>
        <path d="M47.0548639,17.1491667 C46.5871088,17.1491667 46.2198345,17.48 46.2198345,18.0408333 L46.2198345,18.7820833 L47.9726168,18.7820833 L47.9726168,18.0408333 C47.9726168,17.48 47.6005782,17.1491667 47.128059,17.1491667 L47.0548639,17.1491667 Z M48.6240091,18.0008333 L48.6240091,19.7179167 L45.5684422,19.7179167 L45.5684422,18.0008333 C45.5684422,16.9108333 46.2336939,16.2004167 47.059195,16.2004167 L47.1328231,16.2004167 C47.9496621,16.2004167 48.6240091,16.9108333 48.6240091,18.0008333 L48.6240091,18.0008333 Z" fill="#F8E8CA"></path>
        <polygon fill="#F8E8CA" points="48.6240091 15.6055 45.5684422 15.6055 45.5684422 12.5996667 46.2657438 12.5996667 46.2657438 14.6700833 46.8530363 14.6700833 46.8530363 13.18675 47.2796463 13.18675 47.2796463 14.6700833 47.8898934 14.6700833 47.8898934 12.5996667 48.6240091 12.5996667"></polygon>
        <path d="M47.623966,9.639375 C47.4312336,9.639375 47.303034,9.77604167 47.303034,10.1160417 L47.303034,11.003125 L47.9635215,11.003125 L47.9635215,10.1027083 C47.9635215,9.76729167 47.8305578,9.639375 47.6378254,9.639375 L47.623966,9.639375 Z M46.5689184,9.639375 C46.3761859,9.639375 46.2475533,9.76729167 46.2475533,10.1027083 L46.2475533,11.003125 L46.9037098,11.003125 L46.9037098,10.1160417 C46.9037098,9.780625 46.770746,9.639375 46.5827778,9.639375 L46.5689184,9.639375 Z M48.6240091,9.88229167 L48.6240091,11.9389583 L45.5688753,11.9389583 L45.5688753,9.91729167 C45.5688753,9.149375 45.9036667,8.73020833 46.3852812,8.73020833 L46.4220952,8.73020833 C46.7291678,8.73020833 47.0137188,8.96854167 47.1012063,9.38770833 C47.1834966,8.91104167 47.481907,8.681875 47.7525986,8.681875 L47.7937438,8.681875 C48.2844535,8.681875 48.6240091,9.11854167 48.6240091,9.88229167 L48.6240091,9.88229167 Z" fill="#F8E8CA"></path>
        <polygon fill="#F8E8CA" points="46.2934626 6.04775 48.6240091 6.04775 48.6240091 6.98316667 46.2934626 6.98316667 46.2934626 8.219 45.5684422 8.219 45.5684422 4.8165 46.2934626 4.8165"></polygon>
    </g>
</svg>
