<?xml version="1.0" encoding="UTF-8" standalone="no"?>
<svg width="34px" height="40px" viewBox="0 0 34 40" version="1.1" xmlns="http://www.w3.org/2000/svg" xmlns:xlink="http://www.w3.org/1999/xlink">
    <!-- Generator: sketchtool 41.2 (35397) - http://www.bohemiancoding.com/sketch -->
    <title>94F5FCF5-343C-4E33-A951-496D683315F7</title>
    <desc>Created with sketchtool.</desc>
    <defs></defs>
    <g id="The-Debt-Collective" stroke="none" stroke-width="1" fill="none" fill-rule="evenodd">
        <g id="::-Payment" transform="translate(-684.000000, -195.000000)">
            <g id="02.-Payment-options" transform="translate(398.000000, 138.000000)">
                <g id="::-02-paypal" transform="translate(218.000000, 37.000000)">
                    <g id="::-default">
                        <g id="::-logo-(paypal)" transform="translate(61.000000, 16.000000)">
                            <rect id="content-area" x="0" y="0" width="48" height="48"></rect>
                            <path d="M38.7902571,15.7609174 C38.5244044,15.4577982 38.2187467,15.1866055 37.8838745,14.939633 C37.8623288,15.0625688 37.8437045,15.1829358 37.8192372,15.3088073 C36.2840106,23.2280734 31.212723,27.2442202 22.7467002,27.2442202 L19.1587834,27.2442202 C18.7479533,27.2442202 18.4028559,27.5425688 18.3382187,27.953211 C18.3363928,27.9656881 18.3342017,27.9777982 18.3316454,27.9899083 L16.5013514,39.660367 C16.4312363,40.1062385 16.0488904,40.4350459 15.5993509,40.4350459 L15.4554691,40.4350459 L15.0793312,42.8361468 C14.9920526,43.3968807 15.4222375,43.9025688 15.9853487,43.9025688 L22.3490166,43.9025688 C23.1023878,43.9025688 23.7425525,43.3521101 23.8612368,42.6053211 L23.923683,42.2805505 L25.1218463,34.6398165 L25.1988998,34.2207339 C25.3161233,33.4713761 25.9577488,32.9209174 26.71112,32.9209174 L27.6627852,32.9209174 C33.8281591,32.9209174 38.6547745,30.4056881 40.065474,23.126422 C40.6545131,20.0856881 40.3495859,17.5466055 38.7902571,15.7609174" id="P" fill="#28282A"></path>
                            <path d="M37.0496505,14.0447706 C37.5295002,10.9699083 37.0456335,8.87633028 35.3913574,6.98055046 C33.5672715,4.89357798 30.2755176,4 26.063139,4 L13.8339119,4 C12.9735422,4 12.2395257,4.62899083 12.1065993,5.48440367 L7.01303562,37.9295413 C6.91261047,38.5717431 7.40524148,39.1508257 8.04942318,39.1508257 L15.5992034,39.1508257 L17.4948651,27.0649541 L17.4948651,27.0649541 L17.4364359,27.4433028 C17.5704579,26.5889908 18.2968056,25.960367 19.158636,25.960367 L22.7465527,25.960367 C29.7931117,25.960367 35.3102869,23.0847706 36.9232974,14.7651376 C36.9715015,14.5188991 37.0116716,14.2792661 37.0481898,14.0447706 C36.6402811,13.827156 36.6417418,13.8286239 37.0496505,14.0447706" id="P" fill="#28282A"></path>
                        </g>
                    </g>
                </g>
            </g>
        </g>
    </g>
</svg>