<?xml version="1.0" encoding="UTF-8" standalone="no"?>
<svg width="38px" height="38px" viewBox="0 0 38 38" version="1.1" xmlns="http://www.w3.org/2000/svg" xmlns:xlink="http://www.w3.org/1999/xlink">
    <path d="M7.79166667,16.4791667 C10.7916667,22.375 15.625,27.1875 21.5208333,30.2083333 L26.1041667,25.625 C26.6666667,25.0625 27.5,24.875 28.2291667,25.125 C30.5625,25.8958333 33.0833333,26.3125 35.6666667,26.3125 C36.8125,26.3125 37.75,27.25 37.75,28.3958333 L37.75,35.6666667 C37.75,36.8125 36.8125,37.75 35.6666667,37.75 C16.1041667,37.75 0.25,21.8958333 0.25,2.33333333 C0.25,1.1875 1.1875,0.25 2.33333333,0.25 L9.625,0.25 C10.7708333,0.25 11.7083333,1.1875 11.7083333,2.33333333 C11.7083333,4.9375 12.125,7.4375 12.8958333,9.77083333 C13.125,10.5 12.9583333,11.3125 12.375,11.8958333 L7.79166667,16.4791667 L7.79166667,16.4791667 Z" stroke="none" fill-rule="evenodd"></path>
</svg>
