<?xml version="1.0" encoding="UTF-8" standalone="no"?>
<svg width="46px" height="31px" viewBox="0 0 46 31" version="1.1" xmlns="http://www.w3.org/2000/svg" xmlns:xlink="http://www.w3.org/1999/xlink">
    <!-- Generator: Sketch 39.1 (31720) - http://www.bohemiancoding.com/sketch -->
    <title>Shape</title>
    <desc>Created with Sketch.</desc>
    <defs></defs>
    <g stroke="none" stroke-width="1" fill="rgb(0,0,0)" fill-rule="evenodd">
        <g transform="translate(-317.000000, -3280.000000)">
            <g transform="translate(215.000000, 3222.000000)">
                <path d="M125,58 C114.545455,58 105.617273,64.4273333 102,73.5 C105.617273,82.5726667 114.545455,89 125,89 C135.454545,89 144.382727,82.5726667 148,73.5 C144.382727,64.4273333 135.454545,58 125,58 L125,58 Z M125,83.8333333 C119.229091,83.8333333 114.545455,79.204 114.545455,73.5 C114.545455,67.796 119.229091,63.1666667 125,63.1666667 C130.770909,63.1666667 135.454545,67.796 135.454545,73.5 C135.454545,79.204 130.770909,83.8333333 125,83.8333333 L125,83.8333333 Z M125,67.3 C121.529091,67.3 118.727273,70.0693333 118.727273,73.5 C118.727273,76.9306667 121.529091,79.7 125,79.7 C128.470909,79.7 131.272727,76.9306667 131.272727,73.5 C131.272727,70.0693333 128.470909,67.3 125,67.3 L125,67.3 Z"></path>
            </g>
        </g>
    </g>
</svg>