<?xml version="1.0" encoding="UTF-8" standalone="no"?>
<svg width="19px" height="15px" viewBox="0 0 19 15" version="1.1" xmlns="http://www.w3.org/2000/svg" xmlns:xlink="http://www.w3.org/1999/xlink">
    <path d="M11.484816,0.447119648 C12.4663037,0.121774647 13.5828975,0.238704973 14.4753242,0.760347518 C14.7970341,0.940892789 15.0769399,1.18323543 15.3453343,1.43406007 C16.1638466,1.28138421 16.9363138,0.954827491 17.6675827,0.562232405 C17.425846,1.39407354 16.8290772,2.07505637 16.1281011,2.56155923 C16.8260479,2.52157269 17.4834023,2.2701422 18.1383333,2.04839868 C17.6754589,2.78330275 17.0429446,3.40491164 16.3419685,3.91322534 C16.4740452,7.27936468 14.9472865,10.679432 12.2996931,12.7720607 C10.6893263,14.0546592 8.67303545,14.7901691 6.62342253,14.9192166 C5.80430439,14.96405 4.97731011,14.9585973 4.1660681,14.8259147 C2.73866992,14.5981126 1.35125827,14.0837403 0.138333333,13.2943091 C2.04738752,13.502118 4.05822563,12.986534 5.55711489,11.7681563 C4.85856221,11.7075707 4.16303882,11.5106673 3.58323404,11.1071668 C2.90528049,10.6461099 2.39696679,9.9560392 2.1370543,9.18114859 C2.68353697,9.27263294 3.24395434,9.2550631 3.78316672,9.12965078 C3.13914114,8.94001766 2.50723269,8.66071776 2.01830641,8.1881496 C1.2712852,7.49262621 0.817498598,6.47721053 0.848397285,5.45270699 C1.35671098,5.69080864 1.89895265,5.88165348 2.46603444,5.88528862 C2.14068944,5.59750672 1.79898631,5.31881268 1.55543195,4.95348114 C0.719955683,3.80780629 0.644829463,2.17684028 1.36458712,0.956039204 C2.08313306,1.77879249 2.88286379,2.53671911 3.80497756,3.12803517 C5.34809436,4.130122 7.15778806,4.73173762 8.99838046,4.80807556 C8.84509873,3.98956327 8.91234882,3.12015903 9.28373892,2.3664734 C9.71510883,1.46192948 10.5305918,0.751259669 11.484816,0.447119648 L11.484816,0.447119648 Z" stroke="none" fill-rule="evenodd"></path>
</svg>
