<svg width="21px" height="21px" viewBox="0 0 21 21" version="1.1" xmlns="http://www.w3.org/2000/svg" xmlns:xlink="http://www.w3.org/1999/xlink">

    <!-- Generator: Sketch 41.2 (35397) - http://www.bohemiancoding.com/sketch -->

    <desc>Created with Sketch.</desc>

    <defs></defs>

    <path d="M20.875,18.6527778 L20.875,3.09722222 C20.875,1.875 19.875,0.875 18.6527778,0.875 L3.09722222,0.875 C1.875,0.875 0.875,1.875 0.875,3.09722222 L0.875,18.6527778 C0.875,19.875 1.875,20.875 3.09722222,20.875 L18.6527778,20.875 C19.875,20.875 20.875,19.875 20.875,18.6527778 L20.875,18.6527778 Z M14.2916667,9.95833333 L14.2916667,7.625 C14.2916667,7.25833333 13.9916667,6.95833333 13.625,6.95833333 L5.625,6.95833333 C5.25833333,6.95833333 4.95833333,7.25833333 4.95833333,7.625 L4.95833333,14.2916667 C4.95833333,14.6583333 5.25833333,14.9583333 5.625,14.9583333 L13.625,14.9583333 C13.9916667,14.9583333 14.2916667,14.6583333 14.2916667,14.2916667 L14.2916667,11.9583333 L16.9583333,14.625 L16.9583333,7.29166667 L14.2916667,9.95833333 L14.2916667,9.95833333 Z" id="video" stroke="none" fill="#FFFFFF" fill-rule="evenodd"></path>
</svg>
