




<svg width="31px" height="31px" viewBox="0 0 31 31" version="1.1" xmlns="http://www.w3.org/2000/svg" xmlns:xlink="http://www.w3.org/1999/xlink">

    <!-- Generator: Sketch 41.2 (35397) - http://www.bohemiancoding.com/sketch -->

    <desc>Created with Sketch.</desc>

    <defs></defs>

    <g id="doc" stroke="none" stroke-width="1" fill="none" fill-rule="evenodd">

        <path d="M30.875,27.5416667 L30.875,4.20833333 C30.875,2.375 29.375,0.875 27.5416667,0.875 L4.20833333,0.875 C2.375,0.875 0.875,2.375 0.875,4.20833333 L0.875,27.5416667 C0.875,29.375 2.375,30.875 4.20833333,30.875 L27.5416667,30.875 C29.375,30.875 30.875,29.375 30.875,27.5416667 L30.875,27.5416667 Z" id="video" fill="#FFFFFF"></path>

        <path d="M9.7,7 C8.76075,7 8.0085,7.76075 8.0085,8.7 L8,22.3 C8,23.23925 8.75225,24 9.6915,24 L19.9,24 C20.83925,24 21.6,23.23925 21.6,22.3 L21.6,12.1 L16.5,7 L9.7,7 L9.7,7 Z" id="Shape" fill="#28282A"></path>

    </g>

</svg>
