

<svg width="31px" height="31px" viewBox="28 21 31 31" version="1.1" xmlns="http://www.w3.org/2000/svg" xmlns:xlink="http://www.w3.org/1999/xlink">

    <!-- Generator: Sketch 41.2 (35397) - http://www.bohemiancoding.com/sketch -->

    <desc>Created with Sketch.</desc>

    <defs></defs>

    <g id="icn-ink" stroke="none" stroke-width="1" fill="none" fill-rule="evenodd" transform="translate(28.000000, 21.000000)">

        <path d="M30.875,27.5416667 L30.875,4.20833333 C30.875,2.375 29.375,0.875 27.5416667,0.875 L4.20833333,0.875 C2.375,0.875 0.875,2.375 0.875,4.20833333 L0.875,27.5416667 C0.875,29.375 2.375,30.875 4.20833333,30.875 L27.5416667,30.875 C29.375,30.875 30.875,29.375 30.875,27.5416667 L30.875,27.5416667 Z" id="Shape" fill="#FFFFFF"></path>

        <g id="Group-2" transform="translate(7.000000, 7.000000)" fill="#000000">

            <path d="M18,9 C18,4.02943725 13.9705627,0 9,0 C4.02943725,0 0,4.02943725 0,9 C0,13.9705627 4.02943725,18 9,18 C13.9705627,18 18,13.9705627 18,9 Z M1.8,9 C1.8,5.0235498 5.0235498,1.8 9,1.8 C12.9764502,1.8 16.2,5.0235498 16.2,9 C16.2,12.9764502 12.9764502,16.2 9,16.2 C5.0235498,16.2 1.8,12.9764502 1.8,9 Z" id="Oval-2"></path>

            <polygon id="Line" points="14.3990942 6.43238168 15.2741773 6.43238168 15.2741773 5.14590535 14.3990942 5.14590535 2.14793118 5.14590535 1.2728481 5.14590535 1.2728481 6.43238168 2.14793118 6.43238168"></polygon>

            <polygon id="Line-Copy" points="14.3990942 12.8647634 15.2741773 12.8647634 15.2741773 11.578287 14.3990942 11.578287 2.14793118 11.578287 1.2728481 11.578287 1.2728481 12.8647634 2.14793118 12.8647634"></polygon>

            <path d="M6.9603391,2.13879085 C5.78953464,3.90204502 5.09139242,6.11429252 5.09139242,8.79216299 C5.09139242,11.4606321 5.78360991,13.7504652 6.94073885,15.6542013 C7.64534374,16.8134341 8.36252375,17.5958601 8.87220942,18.0106687 L10.1827848,16.6177903 C10.1105323,16.5589874 9.9564382,16.4152763 9.74708637,16.1868785 C9.38381545,15.7905587 9.01723328,15.3093555 8.67321492,14.7433683 C7.67969356,13.1088033 7.08152086,11.1300672 7.08152086,8.79216299 C7.08152086,6.46366015 7.67376881,4.58696655 8.65361462,3.11129981 C8.9902571,2.60430972 9.34802982,2.18447398 9.70153184,1.84802089 C9.90271284,1.65654259 10.0482637,1.54106035 10.1117795,1.49820959 L8.94321462,1.77635684e-15 C8.4140074,0.357028233 7.67879513,1.05678219 6.9603391,2.13879085 Z" id="Path-2"></path>

            <path d="M8.39118974,1.84802089 C8.74469175,2.18447398 9.10246448,2.60430972 9.43910696,3.11129981 C10.4189528,4.58696655 11.0112007,6.46366015 11.0112007,8.79216299 C11.0112007,11.1300672 10.413028,13.1088033 9.41950665,14.7433683 C9.07548829,15.3093555 8.70890612,15.7905587 8.3456352,16.1868785 C8.13628338,16.4152763 7.9821893,16.5589874 7.90993673,16.6177903 L9.22051216,18.0106687 C9.73019782,17.5958601 10.4473778,16.8134341 11.1519827,15.6542013 C12.3091117,13.7504652 13.0013292,11.4606321 13.0013292,8.79216299 C13.0013292,6.11429252 12.3031869,3.90204502 11.1323825,2.13879085 C10.4139264,1.05678219 9.67871417,0.357028233 9.14950695,1.77635684e-15 L7.98094204,1.49820959 C8.04445783,1.54106035 8.19000873,1.65654259 8.39118974,1.84802089 Z" id="Path-2-Copy"></path>

        </g>

    </g>

</svg>
