<svg width="22px" height="13px" viewBox="1 5 22 13" version="1.1" xmlns="http://www.w3.org/2000/svg" xmlns:xlink="http://www.w3.org/1999/xlink">
    <!-- Generator: Sketch 41.2 (35397) - http://www.bohemiancoding.com/sketch -->
    <desc>Created with Sketch.</desc>
    <defs></defs>
    <path d="M8,10.6666667 C9.48,10.6666667 10.6666667,9.46666667 10.6666667,8 C10.6666667,6.53333333 9.48,5.33333333 8,5.33333333 C6.53333333,5.33333333 5.33333333,6.53333333 5.33333333,8 C5.33333333,9.46666667 6.53333333,10.6666667 8,10.6666667 Z M16,10.6666667 C17.48,10.6666667 18.6666667,9.46666667 18.6666667,8 C18.6666667,6.53333333 17.48,5.33333333 16,5.33333333 C14.52,5.33333333 13.3333333,6.53333333 13.3333333,8 C13.3333333,9.46666667 14.5333333,10.6666667 16,10.6666667 Z M8,12.2666667 C5.77333333,12.2666667 1.33333333,13.3733333 1.33333333,15.6 L1.33333333,17.3333333 L14.6666667,17.3333333 L14.6666667,15.6 C14.6666667,13.3733333 10.2266667,12.2666667 8,12.2666667 Z M16,12.2666667 C15.6666667,12.2666667 15.28,12.2933333 14.88,12.3466667 C15.9333333,13.1466667 16.6666667,14.2133333 16.6666667,15.6 L16.6666667,17.3333333 L22.6666667,17.3333333 L22.6666667,15.6 C22.6666667,13.3733333 18.2266667,12.2666667 16,12.2666667 Z" id="Shape-Copy-4" stroke="none" fill="#000000" fill-rule="evenodd"></path>
</svg>
