<?xml version="1.0" encoding="UTF-8" standalone="no"?>
<svg width="30px" height="51px" viewBox="0 0 30 51" version="1.1" xmlns="http://www.w3.org/2000/svg" xmlns:xlink="http://www.w3.org/1999/xlink">
    <!-- Generator: Sketch 39.1 (31720) - http://www.bohemiancoding.com/sketch -->
    <title>Shape</title>
    <desc>Created with Sketch.</desc>
    <defs></defs>
    <g stroke="none" stroke-width="1" fill="rgb(0,0,0)" fill-rule="evenodd">
        <g transform="translate(-662.000000, -263.000000)">
            <g transform="translate(627.000000, 238.000000)">
                <g transform="translate(35.000000, 25.000000)">
                    <g>
                        <path d="M18.3486239,8.45688073 C20.6192661,8.45688073 22.4770642,6.59908257 22.4770642,4.32844037 C22.4770642,2.03486239 20.6192661,0.2 18.3486239,0.2 C16.0550459,0.2 14.2201835,2.05779817 14.2201835,4.32844037 C14.2201835,6.59908257 16.0550459,8.45688073 18.3486239,8.45688073 L18.3486239,8.45688073 Z M18.6238532,22.6770642 L29.8165138,22.6770642 L29.8165138,18.5486239 L21.5137615,18.5486239 L16.9266055,10.9110092 C16.2385321,9.76422018 15,9.00733945 13.5779817,9.00733945 C13.1880734,9.00733945 12.7981651,9.07614679 12.4541284,9.16788991 L-3.55271368e-15,13.0440367 L-3.55271368e-15,24.9706422 L4.12844037,24.9706422 L4.12844037,16.553211 L8.96788991,15.0394495 L-3.55271368e-15,50.2 L4.12844037,50.2 L10.7110092,31.5990826 L16.0550459,38.7321101 L16.0550459,50.2 L20.1834862,50.2 L20.1834862,35.4981651 L14.4724771,25.0853211 L16.146789,18.5027523 L18.6238532,22.6770642 L18.6238532,22.6770642 Z"></path>
                    </g>
                </g>
            </g>
        </g>
    </g>
</svg>