<?xml version="1.0" encoding="UTF-8" standalone="no"?>
<svg width="16px" height="16px" viewBox="0 0 16 16" version="1.1" xmlns="http://www.w3.org/2000/svg" xmlns:xlink="http://www.w3.org/1999/xlink">
    <!-- Generator: Sketch 39.1 (31720) - http://www.bohemiancoding.com/sketch -->
    <title>ic_web</title>
    <desc>Created with Sketch.</desc>
    <defs></defs>
    <g stroke="none" stroke-width="1" fill="none" fill-rule="evenodd" opacity="0.8">
        <g transform="translate(-499.000000, -465.000000)" fill="#FFFFFF">
            <g transform="translate(213.000000, 245.000000)">
                <g transform="translate(177.000000, 218.000000)">
                    <g transform="translate(109.750000, 2.000000)">
                        <g>
                            <path d="M15.1,7.61875 C15.1,3.48696972 11.7505303,0.1375 7.61875,0.1375 C3.48696972,0.1375 0.1375,3.48696972 0.1375,7.61875 C0.1375,11.7505303 3.48696972,15.1 7.61875,15.1 C11.7505303,15.1 15.1,11.7505303 15.1,7.61875 Z M1.63375,7.61875 C1.63375,4.31332577 4.31332577,1.63375 7.61875,1.63375 C10.9241742,1.63375 13.60375,4.31332577 13.60375,7.61875 C13.60375,10.9241742 10.9241742,13.60375 7.61875,13.60375 C4.31332577,13.60375 1.63375,10.9241742 1.63375,7.61875 Z"></path>
                            <polygon points="12.855625 6.1225 13.60375 6.1225 13.60375 4.62625 12.855625 4.62625 2.381875 4.62625 1.63375 4.62625 1.63375 6.1225 2.381875 6.1225"></polygon>
                            <polygon points="12.855625 10.61125 13.60375 10.61125 13.60375 9.115 12.855625 9.115 2.381875 9.115 1.63375 9.115 1.63375 10.61125 2.381875 10.61125"></polygon>
                            <path d="M5.2832662,2.0090433 C4.40301338,3.434453 3.878125,5.22282766 3.878125,7.38761061 C3.878125,9.5447935 4.39855896,11.3958882 5.26853003,12.9348631 C5.79827728,13.8719836 6.33747895,14.5044946 6.72067893,14.8398247 L7.70601658,13.7138257 C7.65169451,13.6662896 7.53584105,13.550114 7.37844283,13.3654778 C7.10532272,13.045094 6.82971308,12.6560907 6.57106773,12.1985482 C5.8241027,10.8771705 5.374375,9.27756582 5.374375,7.38761061 C5.374375,5.50525546 5.81964826,3.98814164 6.55633152,2.7952168 C6.80943142,2.38536744 7.07841779,2.04597341 7.3441933,1.77398568 C7.4954484,1.61919516 7.60487879,1.52583964 7.65263225,1.49119921 L6.7740632,0.280050791 C6.37618621,0.56867141 5.82342723,1.13435054 5.2832662,2.0090433 Z"></path>
                            <path d="M7.48790446,1.77398568 C7.75367996,2.04597341 8.02266634,2.38536744 8.27576624,2.7952168 C9.01244949,3.98814164 9.45772276,5.50525546 9.45772276,7.38761061 C9.45772276,9.27756582 9.00799505,10.8771705 8.26103003,12.1985482 C8.00238468,12.6560907 7.72677504,13.045094 7.45365493,13.3654778 C7.29625671,13.550114 7.18040325,13.6662896 7.12608118,13.7138257 L8.11141882,14.8398247 C8.4946188,14.5044946 9.03382048,13.8719836 9.56356773,12.9348631 C10.4335388,11.3958882 10.9539728,9.5447935 10.9539728,7.38761061 C10.9539728,5.22282766 10.4290844,3.434453 9.54883155,2.0090433 C9.00867052,1.13435054 8.45591155,0.56867141 8.05803456,0.280050791 L7.17946551,1.49119921 C7.22721897,1.52583964 7.33664936,1.61919516 7.48790446,1.77398568 Z"></path>
                        </g>
                    </g>
                </g>
            </g>
        </g>
    </g>
</svg>